SplineFontDB: 1.0
FontName: Kinnari-Bold
FullName: Kinnari Bold
FamilyName: Kinnari
Weight: Bold
Copyright: KinnariBold by Db Type : Fontographer 3.5
Version: 001.000
ItalicAngle: 0
UnderlinePosition: -70
UnderlineWidth: 25
Ascent: 800
Descent: 200
NeedsXUIDChange: 1
FSType: 0
PfmFamily: 17
TTFWeight: 700
TTFWidth: 5
Panose: 0 0 0 0 0 0 0 0 0 0
LineGap: 90
VLineGap: 0
ScriptLang: 3
 1 DFLT 1 dflt 
 1 thai 1 dflt 
 1 latn 1 dflt 
LangName: 1033 "" "" "" "TheNationalFontProject(v.beta).YannisHaralambous,VirachSornlertlamvanichandAnutaraTantraporn: Norasi Bold: 1999" "" "" "" "Norasi Bold is a trademark of the The National Font Project (v.beta ). Yannis Haralambous, Virach Sornlertlamvanich and Anutara Tantraporn." "" "Yannis Haralambous, Virach Sornlertlamvanich and Anutara Tantraporn" "This font was developed under the National Font Project at NECTEC as to be a free licensed font for Thai users and developers." "www.nectec.or.th/sll/" 
Encoding: custom
UnicodeInterp: none
DisplaySize: -72
AntiAlias: 1
FitToEm: 1
WinInfo: 208 8 3
BeginPrivate: 7
BlueValues 31 [-13 0 315 323 385 393 462 472]
BlueScale 9 0.0454545
StdHW 4 [29]
StdVW 4 [67]
StemSnapH 7 [29 42]
StemSnapV 7 [33 67]
ForceBold 4 true
EndPrivate
TeXData: 1 10485760 0 314572 157286 104857 330301 1048576 104857 783286 444596 497025 792723 393216 433062 380633 303038 157286 324010 404750 52429 2506097 1059062 262144
BeginChars: 259 225
StartChar: .notdef
Encoding: 0 -1 0
Width: 250
Flags: HW
HStem: 0 15<15 250> 370 15<0 235>
VStem: 0 15<0 370> 235 15<15 385>
Fore
15 370 m 1
 15 15 l 1
 235 15 l 1
 235 370 l 1
 15 370 l 1
250 0 m 1
 0 0 l 1
 0 385 l 1
 250 385 l 1
 250 0 l 1
EndSplineSet
EndChar
StartChar: exclam
Encoding: 33 33 2
Width: 217
Flags: HMW
HStem: -9 91<97 120> 436 20<92.5 126.5>
VStem: 66 82
Fore
151 396 m 0
 151 396 l 0
 151 385 150 373 149 363 c 1
 120 115 l 1
 97 115 l 1
 68 364 l 1
 68 374 66 385 66 396 c 0
 66 421 76 456 109 456 c 0
 144 456 151 421 151 396 c 0
154 35 m 0
 154 9 132 -9 108 -9 c 0
 86 -9 63 11 63 35 c 0
 63 60 82 82 109 82 c 0
 134 82 154 60 154 35 c 0
EndSplineSet
EndChar
StartChar: quotedbl
Encoding: 34 34 3
Width: 265
Flags: HW
HStem: 289 172<63.5 84 181 201.5>
Fore
227 424 m 0
 205 289 l 1
 178 289 l 1
 155 424 l 2
 152 442 171 461 191 461 c 0
 212 461 231 443 227 424 c 0
110 424 m 2
 87 289 l 1
 60 289 l 1
 38 424 l 1
 34 443 53 461 74 461 c 0
 94 461 113 442 110 424 c 2
EndSplineSet
EndChar
StartChar: numbersign
Encoding: 35 35 4
Width: 325
Flags: HW
HStem: 0 20 141 53 262 53 427 20<110 164 164 164 234 287 287 287>
VStem: 12 318<263 315>
Fore
330 263 m 1
 261 263 l 1
 250 192 l 1
 314 192 l 1
 314 141 l 1
 242 141 l 1
 222 0 l 1
 168 0 l 1
 188 141 l 1
 117 141 l 1
 96 0 l 1
 42 0 l 1
 63 141 l 1
 -5 141 l 1
 -5 192 l 1
 71 192 l 1
 83 263 l 1
 12 263 l 1
 12 315 l 1
 90 315 l 1
 110 447 l 1
 164 447 l 1
 144 315 l 1
 214 315 l 1
 234 447 l 1
 287 447 l 1
 268 315 l 1
 330 315 l 1
 330 263 l 1
207 263 m 1
 137 263 l 1
 125 192 l 1
 196 192 l 1
 207 263 l 1
EndSplineSet
EndChar
StartChar: dollar
Encoding: 36 36 5
Width: 325
Flags: HW
HStem: -8 29
VStem: 26 67 142 33 238 67<79.5 116>
Fore
305 116 m 0
 305 116 l 0
 305 40 248 0 180 -7 c 1
 180 -65 l 1
 142 -65 l 1
 142 -8 l 1
 101 -7 60 5 21 28 c 1
 21 126 l 1
 46 126 l 1
 56 65 88 30 142 26 c 1
 142 197 l 1
 91 226 26 264 26 331 c 0
 26 399 81 434 142 439 c 1
 142 481 l 1
 180 481 l 1
 180 439 l 1
 216 436 253 425 284 401 c 1
 284 317 l 1
 260 317 l 1
 252 367 223 399 180 405 c 1
 180 259 l 1
 238 227 305 194 305 116 c 0
142 280 m 0
 142 405 l 0
 122 400 91 378 91 347 c 0
 91 313 117 297 142 280 c 0
238 99 m 0
 238 137 210 159 180 177 c 1
 180 27 l 1
 216 35 238 60 238 99 c 0
EndSplineSet
EndChar
StartChar: percent
Encoding: 37 37 6
Width: 542
Flags: HW
HStem: -7 36<358.5 404.5> 189 42 413 36
VStem: 32 67 225 33 477 33<142.5 171>
Fore
426 458 m 1
 167 -7 l 1
 117 -7 l 1
 341 393 l 1
 310 383 278 381 254 385 c 1
 256 377 258 368 258 361 c 0
 258 268 177 189 117 189 c 0
 62 189 32 225 32 286 c 0
 32 360 103 449 180 449 c 0
 204 449 219 443 237 426 c 1
 252 415 265 413 284 413 c 0
 320 413 355 429 377 458 c 1
 426 458 l 1
510 171 m 0
 510 171 l 0
 510 64 434 -7 375 -7 c 0
 302 -7 284 36 284 90 c 0
 284 164 356 250 433 250 c 0
 482 250 510 209 510 171 c 0
225 370 m 0
 225 370 l 0
 225 378 223 386 221 394 c 1
 201 401 193 414 183 414 c 0
 160 414 97 352 97 268 c 0
 97 245 104 228 129 228 c 1
 189 234 225 311 225 370 c 0
477 167 m 0
 477 189 465 213 440 213 c 0
 408 213 387 179 374 153 c 0
 342 85 335 29 382 29 c 0
 439 29 477 118 477 167 c 0
EndSplineSet
EndChar
StartChar: ampersand
Encoding: 38 38 7
Width: 506
Flags: HW
HStem: -7 53 416 42
VStem: 20 75<102 141> 124 67<356 376.5> 276 51
Fore
500 78 m 1
 500 78 l 0
 462 20 437 -7 390 -7 c 0
 346 -7 310 20 279 49 c 1
 242 16 193 -7 143 -7 c 0
 65 -7 20 33 20 104 c 0
 20 178 93 232 144 259 c 1
 133 287 124 316 124 346 c 0
 124 407 168 458 231 458 c 0
 283 458 327 427 327 372 c 0
 327 314 278 278 230 256 c 1
 252 215 277 176 304 139 c 1
 326 166 356 212 356 243 c 0
 356 258 347 265 314 268 c 1
 314 295 l 1
 470 295 l 1
 470 268 l 1
 425 262 417 246 400 216 c 0
 378 176 345 127 331 107 c 1
 355 80 381 56 419 56 c 0
 442 56 459 69 476 95 c 1
 500 78 l 1
277 374 m 0
 277 374 l 0
 277 399 259 421 234 421 c 0
 200 421 191 395 191 367 c 0
 191 345 203 313 213 292 c 1
 244 308 277 337 277 374 c 0
252 79 m 1
 217 123 188 172 161 222 c 1
 123 198 95 171 95 122 c 0
 95 82 131 44 171 44 c 0
 194 44 227 59 252 79 c 1
EndSplineSet
EndChar
StartChar: quotesingle
Encoding: 39 39 8
Width: 117
Flags: HW
HStem: 288 172<48.5 69>
Fore
95 423 m 2
 72 288 l 1
 45 288 l 1
 23 423 l 1
 19 442 38 460 59 460 c 0
 79 460 98 441 95 423 c 2
EndSplineSet
EndChar
StartChar: parenleft
Encoding: 40 40 9
Width: 217
Flags: HW
HStem: 440 20<195 195>
VStem: 24 67
Fore
209 -96 m 1
 192 -118 l 1
 100 -56 24 36 24 177 c 0
 24 293 83 390 195 460 c 1
 209 434 l 1
 118 372 95 281 95 183 c 0
 95 78 107 -15 209 -96 c 1
EndSplineSet
EndChar
StartChar: parenright
Encoding: 41 41 10
Width: 217
Flags: HW
VStem: 126 67
Fore
193 159 m 0
 193 44 126 -56 23 -118 c 1
 8 -95 l 1
 100 -31 122 59 122 157 c 0
 122 263 108 365 8 435 c 1
 25 459 l 1
 57 442 193 347 193 159 c 0
EndSplineSet
EndChar
StartChar: asterisk
Encoding: 42 42 11
Width: 325
Flags: HW
HStem: 167 295<147 180>
Fore
291 242 m 0
 274 213 244 227 229 247 c 0
 217 262 204 272 177 291 c 1
 180 263 187 241 192 223 c 0
 198 201 196 167 164 167 c 0
 130 167 128 200 137 223 c 0
 144 241 147 258 149 291 c 1
 121 274 108 263 97 247 c 1
 81 228 52 213 34 243 c 0
 18 271 48 290 69 296 c 1
 86 299 108 305 131 316 c 1
 104 330 88 335 70 337 c 1
 46 342 18 359 35 389 c 0
 51 417 82 401 98 385 c 0
 111 372 126 355 149 339 c 1
 147 372 144 388 137 406 c 0
 128 429 130 462 164 462 c 0
 196 462 198 428 192 406 c 0
 187 389 181 366 177 339 c 1
 199 355 214 374 226 387 c 1
 243 403 273 418 290 390 c 0
 306 362 279 343 254 340 c 0
 235 336 219 328 189 315 c 1
 215 304 238 299 256 295 c 0
 278 289 307 270 291 242 c 0
EndSplineSet
EndChar
StartChar: plus
Encoding: 43 43 12
Width: 367
Flags: HW
HStem: 156 59
VStem: 155 58
Fore
355 157 m 1
 212 157 l 1
 212 13 l 1
 155 13 l 1
 155 157 l 1
 12 157 l 1
 12 215 l 1
 155 215 l 1
 155 357 l 1
 212 357 l 1
 212 215 l 1
 355 215 l 1
 355 157 l 1
EndSplineSet
EndChar
StartChar: comma
Encoding: 44 44 13
Width: 163
Flags: HW
VStem: 96 44
Fore
140 12 m 0
 140 -26 95 -78 55 -93 c 1
 42 -67 l 1
 67 -55 98 -23 98 -3 c 0
 98 -2 97 -1 96 -1 c 0
 90 -1 81 -3 75 -3 c 0
 52 -1 33 13 33 37 c 0
 33 67 50 84 80 84 c 0
 124 84 140 45 140 12 c 0
EndSplineSet
EndChar
StartChar: hyphen
Encoding: 45 45 14
Width: 217
Flags: HW
HStem: 157 53
VStem: 20 175
Fore
196 157 m 1
 20 157 l 1
 20 214 l 1
 196 214 l 1
 196 157 l 1
EndSplineSet
EndChar
StartChar: period
Encoding: 46 46 15
Width: 163
Flags: HW
HStem: -7 91<69 93.5>
VStem: 36 91<26.5 50>
Fore
127 38 m 0
 127 11 106 -7 81 -7 c 0
 57 -7 36 15 36 38 c 0
 36 62 56 84 81 84 c 0
 106 84 127 65 127 38 c 0
EndSplineSet
EndChar
StartChar: slash
Encoding: 47 47 16
Width: 181
Flags: HW
HStem: 442 20<150 208 208 208>
Fore
208 462 m 1
 39 -68 l 1
 -19 -68 l 1
 150 462 l 1
 208 462 l 1
EndSplineSet
EndChar
StartChar: zero
Encoding: 48 48 17
Width: 350
Flags: HW
HStem: -9 29 427 29
VStem: 19 82 247 82
Fore
329 221 m 0
 329 221 l 0
 329 128 291 -9 170 -9 c 0
 74 -9 19 93 19 225 c 0
 19 322 56 456 173 456 c 0
 275 456 329 354 329 221 c 0
250 220 m 0
 250 331 236 423 177 423 c 0
 107 423 98 316 98 212 c 0
 98 120 108 25 175 25 c 0
 245 25 250 125 250 220 c 0
EndSplineSet
EndChar
StartChar: one
Encoding: 49 49 18
Width: 350
Flags: HW
HStem: 0 20 441 20<217 217>
VStem: 150 67
Fore
278 0 m 1
 84 0 l 1
 84 24 l 1
 136 28 145 36 145 60 c 2
 145 352 l 2
 145 394 128 383 78 365 c 1
 78 390 l 1
 217 461 l 1
 217 60 l 2
 217 36 226 28 278 24 c 1
 278 0 l 1
EndSplineSet
EndChar
StartChar: two
Encoding: 50 50 19
Width: 350
Flags: HW
HStem: 0 66<117 237 237 259> 397 59
VStem: 232 67
Fore
334 101 m 1
 293 0 l 1
 26 0 l 1
 28 20 l 1
 139 139 l 2
 180 183 227 243 227 307 c 0
 227 359 194 393 142 393 c 0
 95 393 71 353 54 306 c 1
 26 315 l 1
 41 399 92 456 175 456 c 0
 243 456 299 402 299 334 c 0
 299 271 269 225 208 161 c 2
 117 66 l 1
 237 66 l 2
 281 66 285 68 314 112 c 1
 334 101 l 1
EndSplineSet
EndChar
StartChar: three
Encoding: 51 51 20
Width: 350
Flags: HW
HStem: -7 42 405 53
VStem: 214 67<342.5 360.5>
Fore
303 149 m 0
 303 46 212 -7 119 -7 c 0
 91 -7 36 -2 36 38 c 0
 36 57 50 68 68 68 c 0
 100 68 122 32 161 32 c 0
 210 32 241 72 241 119 c 0
 241 187 204 217 107 217 c 1
 106 240 l 1
 158 256 214 283 214 342 c 0
 214 379 188 403 151 403 c 0
 111 403 83 380 58 334 c 1
 34 341 l 1
 59 417 106 458 172 458 c 0
 246 458 281 418 281 363 c 0
 281 322 258 294 229 273 c 1
 278 249 303 212 303 149 c 0
EndSplineSet
EndChar
StartChar: four
Encoding: 52 52 21
Width: 350
Flags: HW
HStem: 0 20 102 53 429 20<220 263 263 263>
VStem: 197 67
Fore
329 102 m 1
 263 102 l 1
 263 0 l 1
 197 0 l 1
 197 102 l 1
 14 102 l 1
 14 154 l 1
 220 449 l 1
 263 449 l 1
 263 159 l 1
 329 159 l 1
 329 102 l 1
197 159 m 1
 197 346 l 1
 64 159 l 1
 197 159 l 1
EndSplineSet
EndChar
StartChar: five
Encoding: 53 53 22
Width: 350
Flags: HW
HStem: -7 42 383 66
VStem: 242 58
Fore
310 456 m 1
 274 381 l 1
 138 381 l 1
 118 340 l 1
 220 322 300 288 300 158 c 0
 300 56 218 -7 117 -7 c 0
 88 -7 34 -2 28 35 c 0
 24 58 40 73 65 73 c 0
 106 73 121 32 156 32 c 0
 208 32 239 80 239 137 c 0
 239 234 142 265 64 270 c 1
 52 272 47 281 49 289 c 1
 123 449 l 1
 256 449 l 2
 273 449 277 449 293 468 c 1
 310 456 l 1
EndSplineSet
EndChar
StartChar: six
Encoding: 54 54 23
Width: 350
Flags: HW
HStem: -7 29 254 42 442 20<300 312>
VStem: 30 75
Fore
327 149 m 0
 327 149 l 0
 327 67 274 -7 186 -7 c 0
 100 -7 30 63 30 188 c 0
 30 333 130 437 266 457 c 0
 277 458 288 462 312 462 c 1
 315 436 l 1
 288 429 268 428 247 417 c 0
 195 393 142 350 125 275 c 1
 148 288 171 296 198 296 c 0
 279 296 327 240 327 149 c 0
251 156 m 0
 245 205 227 251 174 251 c 0
 154 251 132 244 116 232 c 0
 114 230 114 230 113 229 c 0
 106 213 106 193 106 171 c 0
 106 89 136 27 196 27 c 0
 241 27 259 85 251 156 c 0
EndSplineSet
EndChar
StartChar: seven
Encoding: 55 55 24
Width: 350
Flags: HW
HStem: -7 20 383 66
Fore
315 430 m 1
 174 -7 l 1
 114 -7 l 1
 244 384 l 1
 122 384 l 2
 78 384 69 373 43 330 c 1
 19 342 l 1
 62 449 l 1
 315 449 l 1
 315 430 l 1
EndSplineSet
EndChar
StartChar: eight
Encoding: 56 56 25
Width: 350
Flags: HW
HStem: -7 29 429 29
VStem: 42 67 244 67
Fore
311 110 m 0
 311 110 l 0
 311 35 243 -7 173 -7 c 0
 105 -7 42 34 42 109 c 0
 42 163 83 198 121 226 c 1
 82 264 46 288 46 353 c 0
 46 401 92 458 178 458 c 0
 234 458 297 425 297 361 c 0
 297 306 259 274 217 251 c 1
 262 215 311 174 311 110 c 0
236 359 m 0
 236 359 l 0
 236 398 210 425 172 425 c 0
 138 425 110 403 110 368 c 0
 110 326 151 294 183 273 c 1
 214 292 236 322 236 359 c 0
245 92 m 0
 245 144 190 176 151 203 c 0
 150 203 150 202 150 202 c 2
 125 182 107 147 107 116 c 0
 107 66 131 25 183 25 c 0
 221 25 245 54 245 92 c 0
EndSplineSet
EndChar
StartChar: nine
Encoding: 57 57 26
Width: 350
Flags: HW
HStem: -13 20 156 42 429 29
VStem: 27 75
Fore
314 198 m 0
 314 198 l 0
 293 127 235 45 154 11 c 0
 116 -6 75 -13 47 -13 c 1
 43 15 l 1
 89 23 147 40 189 96 c 0
 208 121 225 151 235 182 c 1
 207 165 179 156 152 156 c 0
 78 156 27 211 27 301 c 0
 27 358 63 458 174 458 c 0
 235 458 284 414 305 359 c 0
 322 310 329 252 314 198 c 0
243 279 m 0
 243 332 234 425 165 425 c 0
 113 425 103 361 103 320 c 0
 103 268 116 200 178 200 c 0
 196 200 228 212 241 228 c 1
 243 244 243 260 243 279 c 0
EndSplineSet
EndChar
StartChar: colon
Encoding: 58 58 27
Width: 181
Flags: HW
HStem: -5 91<78 103> 255 91<78 103>
VStem: 46 91<28.5 52 288.5 300>
Fore
137 300 m 0
 137 300 l 0
 137 273 116 255 91 255 c 0
 65 255 46 277 46 300 c 0
 46 324 64 346 91 346 c 0
 115 346 137 327 137 300 c 0
137 40 m 0
 137 13 116 -5 91 -5 c 0
 65 -5 46 17 46 40 c 0
 46 64 64 86 91 86 c 0
 115 86 137 67 137 40 c 0
EndSplineSet
EndChar
StartChar: semicolon
Encoding: 59 59 28
Width: 181
Flags: HW
HStem: 255 91<79 102.5>
VStem: 106 44
Fore
136 302 m 0
 136 302 l 0
 136 279 114 255 91 255 c 0
 64 255 45 279 45 302 c 0
 45 325 67 346 91 346 c 0
 114 346 136 325 136 302 c 0
150 12 m 0
 150 -26 105 -78 65 -93 c 1
 52 -67 l 1
 77 -55 108 -23 108 -3 c 0
 108 -2 107 -1 106 -1 c 0
 100 -1 91 -3 85 -3 c 0
 62 -1 43 13 43 37 c 0
 43 67 60 84 90 84 c 0
 131 84 150 47 150 12 c 0
EndSplineSet
EndChar
StartChar: less
Encoding: 60 60 29
Width: 367
Flags: HW
HStem: -12 20
Fore
357 -12 m 1
 10 147 l 1
 10 192 l 1
 357 352 l 1
 357 294 l 1
 88 170 l 1
 357 46 l 1
 357 -12 l 1
EndSplineSet
EndChar
StartChar: equal
Encoding: 61 61 30
Width: 367
Flags: HW
HStem: 78 59 203 59
Fore
355 204 m 1
 12 204 l 1
 12 262 l 1
 355 262 l 1
 355 204 l 1
355 78 m 1
 12 78 l 1
 12 136 l 1
 355 136 l 1
 355 78 l 1
EndSplineSet
EndChar
StartChar: greater
Encoding: 62 62 31
Width: 367
Flags: HW
HStem: -2 20
Fore
357 157 m 1
 10 -2 l 1
 10 56 l 1
 278 180 l 1
 10 304 l 1
 10 362 l 1
 357 202 l 1
 357 157 l 1
EndSplineSet
EndChar
StartChar: question
Encoding: 63 63 32
Width: 289
Flags: HW
HStem: -9 91<129.5 152> 420 36
VStem: 24 75 190 75
Fore
265 345 m 0
 265 345 l 0
 265 301 237 260 212 231 c 0
 178 191 160 150 153 107 c 1
 127 107 l 1
 127 216 189 259 189 344 c 0
 189 383 169 421 127 421 c 0
 106 421 69 406 77 381 c 0
 79 375 82 375 86 369 c 0
 95 358 98 353 98 340 c 0
 98 319 83 306 61 306 c 0
 33 306 24 335 24 357 c 0
 24 420 84 456 141 456 c 0
 220 456 265 400 265 345 c 0
186 36 m 0
 186 10 163 -9 141 -9 c 0
 118 -9 95 12 95 36 c 0
 95 60 118 82 141 82 c 0
 163 82 186 61 186 36 c 0
EndSplineSet
EndChar
StartChar: at
Encoding: 64 64 33
Width: 599
Flags: HW
HStem: -101 42<253 352.5> 26 42 282 42 413 42
VStem: 28 82 174 75 529 44
Fore
573 223 m 0
 573 223 l 0
 573 115 498 26 429 26 c 0
 407 26 368 32 350 71 c 1
 325 43 287 27 261 27 c 0
 211 27 174 56 174 128 c 0
 174 227 255 324 332 324 c 0
 359 324 378 311 390 296 c 1
 395 315 l 1
 468 315 l 1
 412 100 l 2
 407 81 419 70 434 70 c 0
 480 70 531 151 531 222 c 0
 531 337 426 414 326 414 c 0
 192 414 106 278 106 170 c 0
 106 75 143 -59 322 -59 c 0
 383 -59 456 -36 490 -1 c 1
 504 -9 l 1
 490 -53 l 1
 490 -53 426 -101 321 -101 c 0
 185 -101 28 -23 28 175 c 0
 28 287 121 455 326 455 c 0
 411 455 573 398 573 223 c 0
371 232 m 0
 371 267 358 278 342 278 c 0
 309 278 250 224 250 122 c 0
 250 87 258 71 282 71 c 0
 302 71 327 96 333 108 c 0
 342 123 371 187 371 232 c 0
EndSplineSet
EndChar
StartChar: A
Encoding: 65 65 34
Width: 470
Flags: HW
HStem: 0 29<134.5 147> 141 42<153 279> 429 20<218 247 247 247>
VStem: 283 184
Fore
467 0 m 1
 285 0 l 1
 285 29 l 1
 339 31 336 42 316 90 c 2
 295 141 l 1
 136 141 l 1
 126 115 102 70 102 48 c 0
 102 31 122 29 147 29 c 1
 147 0 l 1
 2 0 l 1
 2 28 l 1
 47 32 62 78 87 137 c 2
 218 449 l 1
 247 449 l 1
 404 87 l 2
 414 64 426 27 467 29 c 1
 467 0 l 1
279 183 m 1
 215 334 l 1
 153 183 l 1
 279 183 l 1
EndSplineSet
EndChar
StartChar: B
Encoding: 66 66 35
Width: 434
Flags: HW
HStem: 0 29<5 31.5> 212 42<150 174> 420 29<5 31.5>
VStem: 68 82<60 67 67 212 254 389> 292 82
Fore
396 127 m 0
 396 127 l 0
 396 45 325 0 218 0 c 2
 5 0 l 1
 5 29 l 1
 58 29 68 44 68 60 c 2
 68 389 l 2
 68 404 58 420 5 420 c 1
 5 449 l 1
 187 449 l 2
 293 449 374 418 374 331 c 0
 374 282 348 251 308 235 c 1
 356 218 396 183 396 127 c 0
291 329 m 0
 291 329 l 0
 291 374 263 398 222 405 c 1
 170 409 150 407 150 389 c 2
 150 254 l 1
 195 254 l 2
 255 254 291 281 291 329 c 0
305 128 m 0
 305 201 232 212 174 212 c 2
 150 212 l 1
 150 67 l 2
 150 48 156 40 195 40 c 0
 258 40 305 58 305 128 c 0
EndSplineSet
EndChar
StartChar: C
Encoding: 67 67 36
Width: 434
Flags: HW
HStem: -9 42 413 42
VStem: 14 91<174.5 274>
Fore
424 80 m 1
 380 25 310 -9 245 -9 c 0
 114 -9 14 75 14 223 c 0
 14 357 108 456 244 456 c 0
 328 456 360 400 382 455 c 1
 409 455 l 1
 414 293 l 1
 385 293 l 1
 365 366 321 413 250 413 c 0
 148 413 105 330 105 218 c 0
 105 131 150 36 251 36 c 0
 313 36 354 56 404 106 c 1
 424 80 l 1
EndSplineSet
EndChar
StartChar: D
Encoding: 68 68 37
Width: 470
Flags: HW
HStem: 0 29<5 29> 420 29<5 29>
VStem: 62 82 374 82
Fore
456 224 m 0
 456 224 l 0
 456 88 366 0 186 0 c 2
 5 0 l 1
 5 29 l 1
 53 29 62 44 62 60 c 2
 62 389 l 2
 62 404 53 420 5 420 c 1
 5 449 l 1
 181 449 l 2
 352 449 456 375 456 224 c 0
369 223 m 0
 369 346 289 408 174 408 c 0
 150 408 145 408 145 383 c 2
 145 67 l 2
 145 49 157 44 168 43 c 0
 296 37 369 108 369 223 c 0
EndSplineSet
EndChar
StartChar: E
Encoding: 69 69 38
Width: 397
Flags: HW
HStem: 0 42 212 42 420 29<0 23.5>
VStem: 57 82 292 33
Fore
399 126 m 1
 365 0 l 1
 0 0 l 1
 0 29 l 1
 47 29 57 44 57 60 c 2
 57 389 l 2
 57 404 47 420 0 420 c 1
 0 449 l 1
 361 449 l 1
 361 340 l 1
 332 340 l 1
 325 378 305 406 265 406 c 2
 160 406 l 2
 149 406 140 400 140 389 c 2
 140 255 l 1
 223 255 l 2
 262 255 296 264 296 317 c 1
 325 317 l 1
 325 149 l 1
 296 149 l 1
 296 202 262 212 223 212 c 2
 140 212 l 1
 140 60 l 2
 140 53 140 43 148 43 c 2
 234 43 l 2
 283 43 331 44 365 126 c 1
 399 126 l 1
EndSplineSet
EndChar
StartChar: F
Encoding: 70 70 39
Width: 362
Flags: HW
HStem: 0 29<0 23.5 173.5 198> 212 42 420 29<0 23.5>
VStem: 57 82 287 33
Fore
362 340 m 1
 331 340 l 1
 323 412 287 406 245 406 c 2
 159 406 l 2
 144 406 140 399 140 389 c 2
 140 255 l 1
 217 255 l 2
 256 255 290 264 290 317 c 1
 320 317 l 1
 320 149 l 1
 290 149 l 1
 290 202 256 212 217 212 c 2
 140 212 l 1
 140 60 l 2
 140 44 149 29 198 29 c 1
 198 0 l 1
 0 0 l 1
 0 29 l 1
 47 29 57 44 57 60 c 2
 57 389 l 2
 57 404 47 420 0 420 c 1
 0 449 l 1
 362 449 l 1
 362 340 l 1
EndSplineSet
EndChar
StartChar: G
Encoding: 71 71 40
Width: 470
Flags: HW
HStem: -9 42 219 29<284 311 444 466> 414 42<241 283.5>
VStem: 10 91<169 271.5> 341 82
Fore
466 219 m 1
 422 219 420 200 420 169 c 2
 420 40 l 1
 378 17 303 -9 249 -9 c 0
 134 -9 10 64 10 222 c 0
 10 356 106 456 241 456 c 0
 316 456 364 405 381 456 c 1
 409 456 l 1
 414 302 l 1
 386 302 l 1
 361 373 320 414 247 414 c 0
 144 414 101 326 101 217 c 0
 101 121 153 34 257 34 c 0
 280 34 306 38 327 47 c 0
 341 54 341 57 341 72 c 2
 341 169 l 2
 341 201 338 219 284 219 c 1
 284 248 l 1
 466 248 l 1
 466 219 l 1
EndSplineSet
EndChar
StartChar: H
Encoding: 72 72 41
Width: 470
Flags: HW
HStem: 0 29<5 29 178 202 268 292 441.5 465> 210 42 420 29<6 29.5 178 202 268 292 441.5 465>
VStem: 62 82 326 82<60 209 209 209 252 389>
Fore
465 0 m 1
 268 0 l 1
 268 29 l 1
 316 29 326 44 326 60 c 2
 326 209 l 1
 145 209 l 1
 145 60 l 2
 145 44 154 29 202 29 c 1
 202 0 l 1
 5 0 l 1
 5 29 l 1
 53 29 62 44 62 60 c 2
 62 389 l 2
 62 404 53 420 6 420 c 1
 2 449 l 1
 202 449 l 1
 202 420 l 1
 154 420 145 404 145 389 c 2
 145 252 l 1
 326 252 l 1
 326 389 l 2
 326 404 316 420 268 420 c 1
 268 449 l 1
 465 449 l 1
 465 420 l 1
 418 420 408 404 408 389 c 2
 408 60 l 2
 408 44 418 29 465 29 c 1
 465 0 l 1
EndSplineSet
EndChar
StartChar: I
Encoding: 73 73 42
Width: 217
Flags: HW
HStem: 0 29<4 31 187 214> 420 29<4 31 187 214>
VStem: 68 82<60 389>
Fore
214 0 m 1
 4 0 l 1
 4 29 l 1
 58 29 68 44 68 60 c 2
 68 389 l 2
 68 404 58 420 4 420 c 1
 4 449 l 1
 214 449 l 1
 214 420 l 1
 160 420 150 404 150 389 c 2
 150 60 l 2
 150 44 160 29 214 29 c 1
 214 0 l 1
EndSplineSet
EndChar
StartChar: J
Encoding: 74 74 43
Width: 253
Flags: HW
HStem: -9 42 420 29<43 70 226 253>
VStem: 107 82<88 137 137 389>
Fore
253 420 m 1
 199 420 189 404 189 389 c 2
 189 137 l 2
 189 39 137 -9 73 -9 c 0
 51 -9 8 0 1 35 c 2
 -1 46 l 1
 -1 65 15 86 38 86 c 0
 64 86 78 65 76 56 c 0
 73 47 79 32 88 32 c 0
 104 32 107 59 107 82 c 2
 107 389 l 2
 107 404 97 420 43 420 c 1
 43 449 l 1
 253 449 l 1
 253 420 l 1
EndSplineSet
EndChar
StartChar: K
Encoding: 75 75 44
Width: 470
Flags: HW
HStem: 0 29<5 29.5 180.5 205 255 277 443 469> 420 29<5 29.5 181 206 411 438>
VStem: 64 82<60 199 254 389> 254 184
Fore
469 0 m 1
 255 0 l 1
 255 29 l 1
 299 29 306 32 297 46 c 0
 279 77 237 122 212 146 c 1
 154 205 l 1
 146 199 l 1
 146 60 l 2
 146 44 156 29 205 29 c 1
 205 0 l 1
 5 0 l 1
 5 29 l 1
 54 29 64 44 64 60 c 2
 64 389 l 2
 64 404 54 420 5 420 c 1
 5 449 l 1
 206 449 l 1
 206 420 l 1
 156 420 146 404 146 389 c 2
 146 254 l 1
 190 292 296 380 296 406 c 0
 296 425 272 419 252 421 c 1
 252 449 l 1
 438 449 l 1
 438 420 l 1
 384 420 361 396 331 366 c 2
 219 254 l 1
 316 150 l 1
 360 102 l 2
 392 66 417 29 469 29 c 1
 469 0 l 1
EndSplineSet
EndChar
StartChar: L
Encoding: 76 76 45
Width: 397
Flags: HW
HStem: 0 42 420 29<0 23.5 173 197>
VStem: 57 82
Fore
400 129 m 1
 364 0 l 1
 0 0 l 1
 0 29 l 1
 47 29 57 44 57 60 c 2
 57 389 l 2
 57 404 47 420 0 420 c 1
 0 449 l 1
 197 449 l 1
 197 420 l 1
 149 420 140 404 140 389 c 2
 140 60 l 2
 140 45 162 43 197 43 c 0
 275 43 331 39 368 129 c 1
 400 129 l 1
EndSplineSet
EndChar
StartChar: M
Encoding: 77 77 46
Width: 578
Flags: HW
HStem: 0 29<5 31.5 148.5 175 378 401.5 550.5 574> 420 29<6 32 550 574>
VStem: 68 44<60 329> 435 82<60 344 344 344>
Fore
574 0 m 1
 378 0 l 1
 378 29 l 1
 425 29 435 44 435 60 c 2
 435 344 l 1
 281 0 l 1
 262 0 l 1
 112 329 l 1
 112 60 l 2
 112 44 122 29 175 29 c 1
 175 0 l 1
 5 0 l 1
 5 29 l 1
 58 29 68 44 68 60 c 2
 68 389 l 2
 68 404 58 420 6 420 c 1
 6 449 l 1
 148 449 l 1
 293 129 l 1
 431 449 l 1
 574 449 l 1
 574 420 l 1
 526 420 517 404 517 389 c 2
 517 60 l 2
 517 44 527 29 574 29 c 1
 574 0 l 1
EndSplineSet
EndChar
StartChar: N
Encoding: 78 78 47
Width: 470
Flags: HW
HStem: 0 29<0 26.5 144 171> 420 29<0 18.5 298 325 442.5 469>
VStem: 63 44 362 44
Fore
469 420 m 1
 416 420 406 404 406 389 c 2
 406 -9 l 1
 384 -9 l 1
 108 337 l 1
 108 60 l 2
 108 44 117 29 171 29 c 1
 171 0 l 1
 0 0 l 1
 0 29 l 1
 53 29 63 44 63 60 c 2
 63 388 l 1
 59 394 l 1
 41 414 37 420 0 420 c 1
 0 449 l 1
 123 449 l 1
 361 149 l 1
 361 389 l 2
 361 404 352 420 298 420 c 1
 298 449 l 1
 469 449 l 1
 469 420 l 1
EndSplineSet
EndChar
StartChar: O
Encoding: 79 79 48
Width: 470
Flags: HW
HStem: -9 42 414 42
VStem: 14 91 364 91
Fore
455 223 m 0
 455 223 l 0
 455 93 370 -9 235 -9 c 0
 116 -9 14 81 14 223 c 0
 14 358 103 458 235 456 c 1
 351 461 455 367 455 223 c 0
366 223 m 1
 366 320 332 418 235 416 c 1
 143 410 104 342 104 223 c 0
 104 95 161 25 234 31 c 0
 345 40 369 157 366 223 c 1
EndSplineSet
EndChar
StartChar: P
Encoding: 80 80 49
Width: 362
Flags: HW
HStem: 0 29<-1 23 172.5 196> 188 42 420 29<3 25.5>
VStem: 57 82<60 190 231 387> 279 82
Fore
361 327 m 0
 361 327 l 0
 361 226 275 188 187 188 c 0
 172 188 155 189 139 190 c 1
 139 60 l 2
 139 44 149 29 196 29 c 1
 196 0 l 1
 -1 0 l 1
 -1 29 l 1
 47 29 57 44 57 60 c 2
 57 389 l 2
 57 404 48 420 3 420 c 1
 3 449 l 1
 174 449 l 2
 280 449 361 408 361 327 c 0
274 322 m 0
 274 391 217 408 159 408 c 0
 140 408 139 406 139 387 c 2
 139 231 l 1
 147 230 155 229 163 229 c 0
 228 229 274 252 274 322 c 0
EndSplineSet
EndChar
StartChar: Q
Encoding: 81 81 50
Width: 470
Flags: HW
HStem: -115 29 414 42
VStem: 14 91 364 91
Fore
464 -115 m 1
 464 -115 l 0
 340 -115 261 -95 204 -40 c 0
 192 -29 179 -11 168 -3 c 1
 163 3 154 5 150 6 c 0
 62 30 14 131 14 223 c 0
 14 355 97 456 235 456 c 0
 371 456 455 354 455 223 c 0
 455 100 376 9 292 -4 c 1
 335 -55 387 -86 464 -88 c 1
 464 -115 l 1
366 223 m 0
 366 346 315 416 235 416 c 0
 150 415 104 347 104 223 c 0
 104 101 154 31 235 31 c 0
 321 31 366 109 366 223 c 0
EndSplineSet
EndChar
StartChar: R
Encoding: 82 82 51
Width: 434
Flags: HW
HStem: 0 29<0 23 171 195> 420 29<0 23>
VStem: 55 82 279 82
Fore
433 0 m 1
 317 0 l 1
 162 200 l 1
 138 199 l 1
 138 60 l 2
 138 44 147 29 195 29 c 1
 195 0 l 1
 0 0 l 1
 0 29 l 1
 46 29 55 44 55 60 c 2
 55 389 l 2
 55 404 46 420 0 420 c 1
 0 449 l 1
 180 449 l 2
 294 449 361 406 361 326 c 0
 361 257 309 222 250 210 c 1
 370 62 l 2
 386 43 399 31 433 28 c 1
 433 0 l 1
274 325 m 0
 274 384 231 408 178 408 c 0
 143 408 138 410 138 385 c 2
 138 239 l 1
 221 243 274 261 274 325 c 0
EndSplineSet
EndChar
StartChar: S
Encoding: 83 83 52
Width: 362
Flags: HW
HStem: -9 42 414 42
VStem: 38 67
Fore
327 118 m 0
 327 56 277 -9 182 -9 c 0
 119 -9 75 43 68 -9 c 1
 40 -9 l 1
 19 147 l 1
 48 147 l 1
 69 84 112 32 177 32 c 0
 224 32 256 72 242 118 c 0
 216 209 38 214 38 339 c 0
 38 408 94 456 161 456 c 0
 226 456 255 405 271 456 c 1
 298 456 l 1
 314 301 l 1
 282 301 l 1
 267 364 227 413 171 413 c 0
 137 413 110 395 110 359 c 0
 110 324 149 300 175 284 c 0
 267 229 327 199 327 118 c 0
EndSplineSet
EndChar
StartChar: T
Encoding: 84 84 53
Width: 397
Flags: HW
HStem: 0 29<100 124 273 297> 407 42
VStem: 157 82
Fore
394 322 m 1
 364 322 l 1
 349 407 320 405 278 405 c 2
 240 405 l 1
 240 60 l 2
 240 44 249 29 297 29 c 1
 297 0 l 1
 100 0 l 1
 100 29 l 1
 148 29 157 44 157 60 c 2
 157 405 l 1
 116 405 71 408 55 384 c 1
 42 368 40 347 35 322 c 1
 4 322 l 1
 8 449 l 1
 390 449 l 1
 394 322 l 1
EndSplineSet
EndChar
StartChar: U
Encoding: 85 85 54
Width: 470
Flags: HW
HStem: -9 42 420 29<3 26.5 175.5 199 300 325.5 440.5 466>
VStem: 60 82<173 389> 361 44<182 389>
Fore
466 420 m 1
 415 420 405 404 405 389 c 2
 405 182 l 2
 405 105 398 45 320 9 c 1
 299 -2 263 -9 234 -9 c 0
 110 -9 60 48 60 173 c 2
 60 389 l 2
 60 404 50 420 3 420 c 1
 3 449 l 1
 199 449 l 1
 199 420 l 1
 152 420 142 404 142 389 c 2
 142 168 l 2
 142 73 170 36 247 36 c 0
 361 36 361 124 361 182 c 2
 361 389 l 2
 361 404 351 420 300 420 c 1
 300 449 l 1
 466 449 l 1
 466 420 l 1
EndSplineSet
EndChar
StartChar: V
Encoding: 86 86 55
Width: 470
Flags: HW
HStem: -9 20 420 29<5 26.5 173.5 194 315 326 446.5 464>
VStem: 315 149<420 449>
Fore
464 420 m 1
 429 420 418 401 409 378 c 0
 361 263 294 90 256 -9 c 1
 238 -9 l 1
 78 350 l 2
 62 386 48 420 5 420 c 1
 5 449 l 1
 194 449 l 1
 194 420 l 1
 153 420 145 417 145 404 c 0
 145 391 169 343 174 330 c 1
 262 133 l 1
 347 349 l 2
 352 362 362 386 362 400 c 0
 362 420 337 420 315 420 c 1
 315 449 l 1
 464 449 l 1
 464 420 l 1
EndSplineSet
EndChar
StartChar: W
Encoding: 87 87 56
Width: 614
Flags: HW
HStem: -9 20 420 29<157 173 157 157 198 213 376.5 388>
VStem: 198 190<420 449> 468 149
Fore
617 421 m 1
 596 419 583 416 574 406 c 1
 568 397 565 388 563 379 c 1
 427 -9 l 1
 408 -9 l 1
 309 253 l 1
 214 -9 l 1
 193 -9 l 1
 91 278 l 1
 79 310 59 371 42 399 c 0
 34 413 21 418 -2 421 c 1
 -2 449 l 1
 173 449 l 1
 173 420 l 1
 157 420 l 1
 141 418 131 419 131 402 c 0
 131 396 138 378 140 373 c 2
 224 152 l 1
 284 313 l 1
 276 340 266 371 253 395 c 0
 243 415 228 420 198 420 c 1
 198 449 l 1
 388 449 l 1
 388 420 l 1
 365 420 338 424 338 408 c 0
 338 399 342 388 343 384 c 1
 432 152 l 1
 504 347 l 1
 514 376 520 400 514 409 c 0
 507 420 491 419 472 421 c 1
 472 449 l 1
 617 449 l 1
 617 421 l 1
EndSplineSet
EndChar
StartChar: X
Encoding: 88 88 57
Width: 470
Flags: HW
HStem: 0 29<0 21.5 147.5 167 258 280 449 467> 420 29<199.5 220 291 300.5 436 462>
VStem: 0 167<0 29> 291 175
Fore
467 0 m 1
 258 0 l 1
 258 29 l 1
 302 29 312 32 305 50 c 1
 301 65 281 94 271 107 c 1
 220 182 l 1
 155 100 l 2
 143 86 129 69 120 53 c 0
 113 39 128 29 167 29 c 1
 167 0 l 1
 0 0 l 1
 0 29 l 1
 43 29 69 65 101 106 c 1
 194 221 l 1
 131 316 l 2
 80 392 61 418 8 420 c 1
 8 449 l 1
 220 449 l 1
 220 420 l 1
 179 420 171 420 171 408 c 0
 171 389 218 325 229 310 c 2
 246 286 l 1
 308 362 l 2
 316 372 337 392 337 407 c 0
 337 424 310 420 291 420 c 1
 291 449 l 1
 462 449 l 1
 462 420 l 1
 410 420 376 379 358 356 c 2
 272 248 l 1
 388 80 l 1
 416 42 431 29 467 29 c 1
 467 0 l 1
EndSplineSet
EndChar
StartChar: Y
Encoding: 89 89 58
Width: 470
Flags: HW
HStem: 0 29<131 159 317 345> 420 29<187 205 307 325>
VStem: 197 82<60 197 197 197> 307 158<421 449>
Fore
465 421 m 1
 415 414 388 371 370 344 c 2
 279 205 l 1
 279 60 l 2
 279 44 289 29 345 29 c 1
 345 0 l 1
 131 0 l 1
 131 29 l 1
 187 29 197 44 197 60 c 2
 197 197 l 1
 117 315 l 2
 75 377 59 419 7 420 c 1
 7 449 l 1
 205 449 l 1
 205 420 l 1
 169 420 158 421 158 410 c 0
 158 398 165 388 172 379 c 1
 258 251 l 1
 340 380 l 2
 346 390 356 401 351 413 c 0
 348 420 343 420 307 420 c 1
 307 449 l 1
 465 449 l 1
 465 421 l 1
EndSplineSet
EndChar
StartChar: Z
Encoding: 90 90 59
Width: 397
Flags: HW
HStem: 0 42 407 42
Fore
397 131 m 1
 380 0 l 1
 -3 0 l 1
 -3 19 l 1
 274 408 l 1
 154 408 l 2
 92 408 56 397 44 321 c 1
 11 321 l 1
 26 449 l 1
 386 449 l 1
 384 431 l 1
 110 41 l 1
 254 41 l 2
 320 41 348 58 367 131 c 1
 397 131 l 1
EndSplineSet
EndChar
StartChar: bracketleft
Encoding: 91 91 60
Width: 217
Flags: HW
HStem: -102 29 420 29
VStem: 49 67
Fore
203 -102 m 1
 49 -102 l 1
 49 449 l 1
 203 449 l 1
 203 416 l 1
 144 416 l 2
 121 416 115 411 115 388 c 2
 115 -36 l 2
 115 -63 121 -69 146 -69 c 2
 203 -69 l 1
 203 -102 l 1
EndSplineSet
EndChar
StartChar: backslash
Encoding: 92 92 61
Width: 181
Flags: HW
HStem: 0 20 440 20<-68 -2 -2 -2>
Fore
249 0 m 1
 183 0 l 1
 -68 460 l 1
 -2 460 l 1
 249 0 l 1
EndSplineSet
EndChar
StartChar: bracketright
Encoding: 93 93 62
Width: 217
Flags: HW
HStem: -102 29 420 29
VStem: 100 67
Fore
167 -102 m 1
 14 -102 l 1
 14 -69 l 1
 67 -69 l 2
 99 -68 102 -64 102 -33 c 2
 102 372 l 2
 102 401 105 416 80 416 c 2
 14 416 l 1
 14 449 l 1
 167 449 l 1
 167 -102 l 1
EndSplineSet
EndChar
StartChar: asciicircum
Encoding: 94 94 63
Width: 305
Flags: HW
HStem: 427 20<127 179 179 179>
Fore
309 167 m 1
 244 167 l 1
 153 375 l 1
 61 167 l 1
 -3 167 l 1
 127 447 l 1
 179 447 l 1
 309 167 l 1
EndSplineSet
EndChar
StartChar: underscore
Encoding: 95 95 64
Width: 325
Flags: HW
HStem: -108 42
Fore
333 -108 m 1
 -8 -108 l 1
 -8 -64 l 1
 333 -64 l 1
 333 -108 l 1
EndSplineSet
EndChar
StartChar: grave
Encoding: 96 96 65
Width: 217
Flags: HW
Fore
179 330 m 1
 130 331 l 1
 35 390 l 2
 22 397 3 412 3 425 c 0
 3 445 13 457 31 457 c 0
 44 457 64 448 74 433 c 1
 179 330 l 1
EndSplineSet
EndChar
StartChar: a
Encoding: 97 97 66
Width: 289
Flags: HW
HStem: -7 53 285 29
VStem: 16 75 180 67
Fore
296 70 m 0
 295 34 l 0
 284 21 254 -7 234 -7 c 0
 202 -7 186 12 181 35 c 1
 153 12 119 -7 93 -7 c 0
 49 -7 16 28 16 70 c 0
 16 149 118 180 176 202 c 1
 176 260 173 283 137 283 c 0
 126 283 107 280 101 270 c 1
 99 263 102 251 102 235 c 0
 102 216 84 198 65 198 c 0
 28 198 19 230 36 261 c 0
 60 303 103 314 146 314 c 0
 224 314 247 281 247 195 c 2
 247 58 l 2
 247 40 260 43 296 70 c 0
176 70 m 1
 176 169 l 1
 138 155 89 143 89 93 c 0
 89 70 101 48 127 48 c 0
 137 48 168 58 176 70 c 1
EndSplineSet
EndChar
StartChar: b
Encoding: 98 98 67
Width: 325
Flags: HW
HStem: -7 42 261 53 444 20<112 112>
VStem: 40 67 241 75
Fore
316 166 m 0
 316 166 l 0
 316 77 252 -7 158 -7 c 0
 119 -7 79 4 51 26 c 0
 44 31 40 40 40 52 c 2
 40 372 l 2
 40 408 34 403 -2 403 c 1
 -2 429 l 1
 27 437 44 440 60 446 c 2
 112 464 l 1
 112 279 l 1
 133 302 164 314 196 314 c 0
 276 314 316 236 316 166 c 0
243 138 m 0
 243 186 229 258 168 258 c 0
 126 258 112 234 112 209 c 2
 112 63 l 1
 110 46 117 45 131 38 c 0
 141 34 157 31 167 31 c 0
 227 31 243 88 243 138 c 0
EndSplineSet
EndChar
StartChar: c
Encoding: 99 99 68
Width: 289
Flags: HW
HStem: -7 59 278 36
VStem: 8 67<146 191.5> 192 75<233.5 243>
Fore
279 109 m 1
 247 43 208 -7 138 -7 c 0
 64 -7 8 62 8 147 c 0
 8 236 60 314 162 314 c 0
 202 314 264 291 267 243 c 0
 267 224 249 206 230 206 c 0
 211 206 192 224 192 242 c 0
 192 264 179 279 150 279 c 0
 98 279 75 224 75 174 c 0
 75 118 105 55 167 55 c 0
 207 55 232 84 257 121 c 1
 279 109 l 1
EndSplineSet
EndChar
StartChar: d
Encoding: 100 100 69
Width: 325
Flags: HW
HStem: -7 53 278 36<128 166.5> 444 20<284 284>
VStem: 9 67 217 67
Fore
327 31 m 1
 327 31 l 0
 291 20 258 9 213 -14 c 1
 213 25 l 1
 193 6 166 -7 138 -7 c 0
 52 -7 9 68 9 145 c 0
 9 225 66 314 154 314 c 0
 179 314 199 305 213 297 c 1
 213 372 l 2
 213 407 209 403 170 403 c 1
 170 429 l 1
 200 437 216 441 232 446 c 2
 284 464 l 1
 284 67 l 2
 284 48 303 55 327 55 c 1
 327 31 l 1
213 84 m 2
 213 203 l 2
 213 245 195 278 153 278 c 0
 103 278 81 220 81 165 c 0
 81 86 115 41 163 41 c 0
 195 41 213 65 213 84 c 2
EndSplineSet
EndChar
StartChar: e
Encoding: 101 101 70
Width: 289
Flags: HW
HStem: -7 59 180 36<71 186> 272 42
VStem: 7 58
Fore
285 116 m 1
 285 116 l 0
 261 46 206 -7 138 -7 c 0
 59 -7 7 65 7 147 c 0
 7 245 63 314 147 314 c 0
 222 314 268 260 270 180 c 1
 67 180 l 1
 71 123 99 53 165 53 c 0
 205 53 237 85 260 126 c 1
 285 116 l 1
186 216 m 1
 183 246 168 275 133 275 c 0
 95 275 77 249 71 216 c 1
 186 216 l 1
EndSplineSet
EndChar
StartChar: f
Encoding: 102 102 71
Width: 217
Flags: HW
HStem: 0 20 271 36<6 59 130 209> 377 83
VStem: 59 67
Fore
256 416 m 1
 256 398 243 377 224 377 c 0
 187 377 195 410 169 423 c 0
 164 426 155 427 150 424 c 1
 127 418 130 387 130 368 c 2
 130 307 l 1
 209 307 l 1
 209 271 l 1
 130 271 l 1
 130 60 l 2
 130 36 140 28 190 24 c 1
 190 0 l 1
 5 0 l 1
 5 24 l 1
 50 28 59 36 59 60 c 2
 59 271 l 1
 6 271 l 1
 6 307 l 1
 59 307 l 1
 59 328 60 345 64 364 c 0
 76 418 120 460 178 460 c 0
 207 460 240 453 256 416 c 1
EndSplineSet
EndChar
StartChar: g
Encoding: 103 103 72
Width: 325
Flags: HW
HStem: -141 53 -9 66 100 29 285 29
VStem: 10 67 205 67 272 33
Fore
314 251 m 1
 264 251 l 0
 270 234 272 216 272 203 c 0
 272 136 220 96 159 96 c 0
 149 96 137 98 125 100 c 1
 114 97 94 79 95 67 c 1
 104 56 133 58 145 57 c 0
 238 53 308 57 308 -24 c 0
 308 -102 194 -141 130 -141 c 0
 49 -141 10 -94 10 -66 c 0
 10 -40 35 -21 68 7 c 1
 54 14 40 26 40 43 c 0
 40 68 66 93 91 113 c 1
 57 130 37 159 37 201 c 0
 37 270 92 314 159 314 c 0
 215 314 221 281 314 293 c 1
 314 251 l 1
206 185 m 0
 206 185 l 0
 206 218 190 280 150 280 c 0
 116 280 107 254 107 226 c 0
 107 189 118 129 166 129 c 0
 198 129 206 157 206 185 c 0
274 -36 m 0
 274 -7 232 -10 194 -9 c 0
 166 -9 129 -8 98 -3 c 1
 87 -16 72 -34 72 -51 c 0
 72 -72 96 -89 156 -89 c 0
 227 -89 274 -70 274 -36 c 0
EndSplineSet
EndChar
StartChar: h
Encoding: 104 104 73
Width: 325
Flags: HW
HStem: 0 20 261 53 444 20<110 110>
VStem: 39 67 215 67
Fore
327 0 m 1
 174 0 l 1
 174 24 l 1
 207 27 215 37 215 60 c 2
 215 195 l 2
 215 228 214 263 173 263 c 0
 141 263 126 247 110 229 c 1
 110 60 l 2
 110 37 118 27 151 24 c 1
 151 0 l 1
 -2 0 l 1
 -2 24 l 1
 31 27 39 37 39 60 c 2
 39 372 l 2
 39 405 34 404 -2 403 c 1
 -2 429 l 1
 26 437 42 441 58 446 c 2
 110 464 l 1
 110 275 l 1
 132 298 162 314 196 314 c 0
 267 314 286 274 286 196 c 2
 286 60 l 2
 286 37 294 27 327 24 c 1
 327 0 l 1
EndSplineSet
EndChar
StartChar: i
Encoding: 105 105 74
Width: 181
Flags: HW
HStem: 0 20 377 83<75 98>
VStem: 61 67
Fore
128 418 m 0
 128 418 l 0
 128 396 109 377 87 377 c 0
 63 377 46 396 46 418 c 0
 46 442 63 460 87 460 c 0
 109 460 128 442 128 418 c 0
177 0 m 1
 7 0 l 1
 7 25 l 1
 47 27 56 37 56 60 c 2
 56 218 l 2
 56 259 50 263 7 251 c 1
 7 277 l 1
 127 318 l 1
 127 60 l 2
 127 37 136 27 177 25 c 1
 177 0 l 1
EndSplineSet
EndChar
StartChar: j
Encoding: 106 106 75
Width: 181
Flags: HW
HStem: 377 83<94 116>
VStem: 71 67
Fore
146 418 m 0
 146 418 l 0
 146 396 127 377 105 377 c 0
 83 377 64 396 64 418 c 0
 64 442 83 460 105 460 c 0
 127 460 146 442 146 418 c 0
142 16 m 2
 142 -89 100 -141 23 -141 c 0
 3 -141 -21 -133 -34 -121 c 1
 -51 -102 -45 -73 -27 -66 c 1
 -10 -57 7 -61 17 -73 c 1
 23 -83 31 -95 48 -103 c 0
 70 -113 71 -74 71 -53 c 2
 71 231 l 2
 71 259 63 259 23 253 c 1
 23 277 l 1
 142 318 l 1
 142 16 l 2
EndSplineSet
EndChar
StartChar: k
Encoding: 107 107 76
Width: 325
Flags: HW
HStem: 0 20 287 20<168 317 317 317> 444 20<113 113>
VStem: 42 67 168 149<282 307>
Fore
333 0 m 1
 176 0 l 1
 176 25 l 1
 201 25 199 32 196 36 c 2
 113 146 l 1
 113 60 l 2
 113 37 122 27 162 25 c 1
 162 0 l 1
 -7 0 l 1
 -7 25 l 1
 33 27 42 37 42 60 c 2
 42 385 l 2
 42 408 35 405 -1 402 c 1
 -1 429 l 1
 29 437 45 441 61 446 c 2
 113 464 l 1
 113 196 l 1
 182 257 l 2
 189 264 196 270 201 278 c 1
 201 284 193 282 168 282 c 1
 168 307 l 1
 317 307 l 1
 317 282 l 1
 246 282 215 239 161 191 c 1
 250 77 l 2
 269 53 294 27 333 24 c 1
 333 0 l 1
EndSplineSet
EndChar
StartChar: l
Encoding: 108 108 77
Width: 181
Flags: HW
HStem: 0 20 443 20<127 127>
VStem: 55 67
Fore
177 0 m 1
 5 0 l 1
 5 25 l 1
 47 27 55 37 55 60 c 2
 55 372 l 2
 55 412 50 406 5 406 c 1
 5 430 l 1
 42 437 88 449 127 463 c 1
 127 60 l 2
 127 37 135 27 177 25 c 1
 177 0 l 1
EndSplineSet
EndChar
StartChar: m
Encoding: 109 109 78
Width: 506
Flags: HW
HStem: 0 20 261 53
VStem: 42 67 217 67 393 67
Fore
505 0 m 1
 352 0 l 1
 352 24 l 1
 385 27 393 37 393 60 c 2
 393 192 l 2
 393 248 386 263 350 263 c 0
 324 263 301 250 288 230 c 1
 288 60 l 2
 288 37 296 27 329 24 c 1
 329 0 l 1
 176 0 l 1
 176 24 l 1
 209 27 217 37 217 60 c 2
 217 195 l 1
 218 225 218 263 180 263 c 0
 156 263 126 251 113 231 c 1
 113 60 l 2
 113 37 121 27 154 24 c 1
 154 0 l 1
 1 0 l 1
 1 24 l 1
 34 27 42 37 42 60 c 2
 42 218 l 1
 44 247 36 253 1 253 c 1
 1 278 l 1
 113 318 l 1
 113 263 l 2
 113 250 115 276 123 282 c 0
 146 300 175 314 206 314 c 0
 238 314 264 294 277 266 c 1
 302 291 340 314 374 314 c 0
 457 314 464 244 464 182 c 2
 464 60 l 2
 464 37 472 27 505 24 c 1
 505 0 l 1
EndSplineSet
EndChar
StartChar: n
Encoding: 110 110 79
Width: 325
Flags: HW
HStem: 0 20 261 53
VStem: 39 67 215 67
Fore
327 0 m 1
 174 0 l 1
 174 24 l 1
 207 27 215 37 215 60 c 2
 215 200 l 2
 215 233 213 263 173 263 c 0
 145 263 125 246 110 230 c 1
 110 60 l 2
 110 37 118 27 151 24 c 1
 151 0 l 1
 -2 0 l 1
 -2 24 l 1
 31 27 39 37 39 60 c 2
 39 219 l 2
 39 260 35 260 -2 257 c 1
 -2 281 l 1
 110 317 l 1
 110 274 l 1
 133 295 161 314 202 314 c 0
 256 314 286 277 286 201 c 2
 286 60 l 2
 286 37 294 27 327 24 c 1
 327 0 l 1
EndSplineSet
EndChar
StartChar: o
Encoding: 111 111 80
Width: 325
Flags: HW
HStem: -7 36<143 195.5> 278 36<130 187>
VStem: 12 75 239 75
Fore
314 163 m 0
 314 163 l 0
 314 74 255 -7 160 -7 c 0
 72 -7 12 67 12 150 c 0
 12 241 65 314 160 314 c 0
 251 314 314 253 314 163 c 0
238 132 m 0
 238 187 222 278 152 278 c 0
 108 278 88 237 88 185 c 0
 87 98 114 29 172 29 c 0
 219 29 238 81 238 132 c 0
EndSplineSet
EndChar
StartChar: p
Encoding: 112 112 81
Width: 325
Flags: HW
HStem: -141 20 -7 42 261 53
VStem: 41 67 247 67
Fore
314 166 m 0
 314 166 l 0
 314 74 253 -7 165 -7 c 0
 146 -7 127 1 112 13 c 1
 112 -81 l 2
 112 -105 121 -114 166 -116 c 1
 166 -141 l 1
 -6 -141 l 1
 -6 -117 l 1
 32 -114 41 -105 41 -81 c 2
 41 221 l 2
 41 251 41 262 -6 257 c 1
 -6 281 l 1
 112 317 l 1
 112 279 l 1
 113 280 114 282 116 283 c 0
 135 301 158 314 199 314 c 0
 276 314 314 247 314 166 c 0
242 140 m 0
 242 189 231 262 168 262 c 0
 151 262 133 254 122 242 c 1
 112 233 112 231 112 219 c 2
 112 75 l 2
 112 59 119 52 133 43 c 0
 144 36 158 31 171 31 c 0
 214 31 242 80 242 140 c 0
EndSplineSet
EndChar
StartChar: q
Encoding: 113 113 82
Width: 325
Flags: HW
HStem: -141 20 -7 53 285 29
VStem: 8 67 217 67
Fore
332 -141 m 1
 159 -141 l 1
 159 -116 l 1
 204 -114 213 -105 213 -81 c 2
 213 30 l 1
 187 10 158 -7 126 -7 c 0
 36 -7 8 76 8 147 c 0
 8 235 69 314 163 314 c 0
 189 314 213 308 234 295 c 1
 261 312 l 1
 282 323 284 307 284 294 c 2
 284 -81 l 2
 284 -105 293 -114 332 -117 c 1
 332 -141 l 1
213 99 m 2
 213 218 l 2
 213 245 216 263 187 277 c 0
 176 281 171 282 159 282 c 0
 100 282 80 217 80 167 c 0
 80 100 104 49 152 49 c 0
 170 49 191 55 206 67 c 1
 216 77 213 85 213 99 c 2
EndSplineSet
EndChar
StartChar: r
Encoding: 114 114 83
Width: 217
Flags: HW
HStem: 0 20 261 53
VStem: 44 67
Fore
225 262 m 0
 222 243 208 235 191 235 c 0
 168 235 163 258 147 258 c 0
 136 258 115 231 115 215 c 2
 115 60 l 2
 115 37 124 27 164 25 c 1
 164 0 l 1
 -5 0 l 1
 -5 25 l 1
 35 27 44 37 44 60 c 2
 44 202 l 2
 44 254 38 263 -5 250 c 1
 -5 277 l 1
 115 318 l 1
 115 273 l 1
 131 294 155 314 181 314 c 0
 211 314 230 296 225 262 c 0
EndSplineSet
EndChar
StartChar: s
Encoding: 115 115 84
Width: 253
Flags: HW
HStem: -7 29 285 29
VStem: 25 58 176 58
Fore
234 89 m 0
 234 28 187 -7 130 -7 c 0
 110 -7 99 -2 81 3 c 0
 52 12 51 8 49 -2 c 1
 25 -2 l 1
 25 116 l 1
 51 116 l 1
 59 66 79 25 129 25 c 0
 152 25 173 39 173 63 c 0
 173 132 25 134 25 226 c 0
 25 282 72 314 124 314 c 0
 140 314 152 311 174 302 c 0
 188 297 189 303 194 308 c 1
 213 308 l 1
 213 204 l 1
 189 204 l 1
 176 251 163 283 123 283 c 0
 102 283 82 270 82 249 c 0
 82 184 234 171 234 89 c 0
EndSplineSet
EndChar
StartChar: t
Encoding: 116 116 85
Width: 181
Flags: HW
HStem: -7 20 271 36<110 174>
VStem: 38 67
Fore
193 53 m 1
 163 14 131 -7 98 -7 c 0
 50 -7 37 21 38 92 c 1
 38 271 l 1
 27 271 l 2
 14 271 -6 272 4 293 c 1
 40 317 65 355 110 406 c 1
 110 307 l 1
 174 307 l 1
 174 271 l 1
 110 271 l 1
 110 103 l 2
 110 63 112 34 146 47 c 0
 155 51 161 58 173 72 c 1
 193 53 l 1
EndSplineSet
EndChar
StartChar: u
Encoding: 117 117 86
Width: 325
Flags: HW
HStem: -7 53 287 20<-2 110 110 110 161 279 279 279>
VStem: 39 67 212 67
Fore
320 26 m 1
 288 16 254 4 212 -11 c 1
 212 38 l 1
 197 21 168 -7 123 -7 c 0
 66 -7 39 33 39 94 c 2
 39 243 l 2
 39 275 35 282 -2 282 c 1
 -2 307 l 1
 110 307 l 1
 110 97 l 2
 110 69 120 47 151 47 c 0
 167 47 184 56 197 66 c 0
 212 79 208 86 208 106 c 2
 208 242 l 2
 208 275 205 282 161 282 c 1
 161 307 l 1
 279 307 l 1
 279 86 l 2
 279 58 281 47 320 50 c 1
 320 26 l 1
EndSplineSet
EndChar
StartChar: v
Encoding: 118 118 87
Width: 325
Flags: HW
HStem: -7 20 287 20<-1 142 142 142 206 312 312 312>
VStem: -1 143<282 307> 207 105
Fore
312 282 m 1
 283 282 278 256 267 228 c 1
 180 16 l 1
 178 9 167 -7 161 -7 c 0
 157 -7 145 9 143 16 c 1
 41 252 l 2
 32 272 20 282 -1 282 c 1
 -1 307 l 1
 142 307 l 1
 142 282 l 1
 103 282 114 262 120 244 c 1
 176 107 l 1
 219 221 l 1
 235 265 246 282 206 282 c 1
 206 307 l 1
 312 307 l 1
 312 282 l 1
EndSplineSet
EndChar
StartChar: w
Encoding: 119 119 88
Width: 470
Flags: HW
HStem: -7 20 287 20<6 139 139 139 163 310 310 310 363 459 459 459>
VStem: 161 149 368 91
Fore
459 284 m 1
 439 277 433 256 428 246 c 1
 330 3 l 2
 328 -1 322 -7 318 -7 c 0
 314 -7 309 -1 305 2 c 1
 241 163 l 1
 166 3 l 2
 164 -1 157 -7 153 -7 c 0
 149 -7 143 -1 141 3 c 2
 50 228 l 2
 35 264 35 282 6 282 c 1
 6 307 l 1
 139 307 l 1
 139 281 l 1
 119 283 109 282 109 268 c 0
 109 252 138 187 144 170 c 1
 170 103 l 1
 219 210 l 1
 205 260 200 282 163 282 c 1
 163 307 l 1
 310 307 l 1
 310 282 l 1
 267 283 268 271 282 234 c 2
 330 109 l 1
 330 108 377 221 377 221 c 1
 394 265 403 282 363 282 c 1
 363 307 l 1
 459 307 l 1
 459 284 l 1
EndSplineSet
EndChar
StartChar: x
Encoding: 120 120 89
Width: 325
Flags: HW
HStem: 0 20 287 20<8 159 159 159 172 290 290 290>
VStem: 3 112 172 118<282 307>
Fore
320 0 m 1
 173 0 l 1
 173 25 l 1
 197 26 211 25 204 35 c 2
 144 121 l 1
 104 59 l 2
 86 31 82 25 114 25 c 1
 114 0 l 1
 3 0 l 1
 3 25 l 1
 32 25 41 41 56 63 c 2
 123 159 l 1
 70 240 l 2
 56 261 54 280 8 282 c 1
 8 307 l 1
 159 307 l 1
 159 282 l 1
 136 282 131 278 131 273 c 0
 131 266 151 236 162 218 c 1
 176 235 198 262 198 275 c 0
 198 283 186 282 172 282 c 1
 172 307 l 1
 290 307 l 1
 290 282 l 1
 261 282 243 266 231 250 c 1
 185 183 l 1
 261 67 l 2
 276 44 291 25 320 25 c 1
 320 0 l 1
EndSplineSet
EndChar
StartChar: y
Encoding: 121 121 90
Width: 325
Flags: HW
HStem: -141 83 287 20<2 152 152 152 214 318 318 318>
VStem: 2 149 213 105
Fore
318 282 m 1
 299 282 288 262 283 250 c 2
 187 0 l 1
 168 -51 135 -141 67 -141 c 0
 47 -141 28 -133 17 -115 c 1
 12 -103 10 -92 16 -79 c 0
 22 -65 39 -60 54 -60 c 0
 65 -60 79 -67 95 -71 c 0
 111 -75 121 -59 143 -4 c 0
 146 4 152 15 150 21 c 1
 39 259 l 1
 33 273 25 280 2 283 c 1
 2 307 l 1
 152 307 l 1
 152 282 l 1
 111 282 111 271 120 250 c 2
 186 104 l 1
 243 266 l 2
 246 274 244 281 214 282 c 1
 214 307 l 1
 318 307 l 1
 318 282 l 1
EndSplineSet
EndChar
StartChar: z
Encoding: 122 122 91
Width: 289
Flags: HW
HStem: 0 36<102 169 169 178> 271 36<84.5 109 109 176>
Fore
281 103 m 1
 270 0 l 1
 8 0 l 1
 8 19 l 1
 176 271 l 1
 109 271 l 2
 60 271 57 253 53 215 c 1
 27 215 l 1
 29 307 l 1
 272 307 l 1
 270 288 l 1
 102 36 l 1
 169 36 l 2
 187 36 206 37 223 44 c 1
 246 50 247 81 255 109 c 1
 281 103 l 1
EndSplineSet
EndChar
StartChar: braceleft
Encoding: 123 123 92
Width: 312
Flags: HW
HStem: 440 20<187 222>
VStem: 109 67
Fore
224 -91 m 1
 222 -107 l 1
 142 -109 113 -90 113 -3 c 2
 113 101 l 2
 113 139 108 157 41 175 c 1
 105 193 113 212 113 249 c 2
 113 362 l 2
 113 445 152 460 222 460 c 1
 224 444 l 1
 186 434 176 412 176 372 c 2
 176 258 l 2
 176 216 169 190 139 175 c 1
 170 159 176 130 176 87 c 2
 176 -20 l 2
 176 -59 187 -84 224 -91 c 1
EndSplineSet
EndChar
StartChar: bar
Encoding: 124 124 93
Width: 130
Flags: HW
HStem: 0 20 440 20<36 94 94 94>
VStem: 36 58<0 460>
Fore
94 0 m 1
 36 0 l 1
 36 460 l 1
 94 460 l 1
 94 0 l 1
EndSplineSet
EndChar
StartChar: braceright
Encoding: 125 125 94
Width: 312
Flags: HW
HStem: 440 20<91 126>
VStem: 137 67
Fore
273 175 m 1
 205 157 199 139 199 101 c 2
 199 -3 l 2
 199 -90 170 -109 91 -107 c 1
 89 -91 l 1
 126 -84 137 -59 137 -20 c 2
 137 87 l 2
 137 129 142 159 173 175 c 1
 143 190 137 216 137 258 c 2
 137 372 l 2
 137 412 127 434 89 444 c 1
 91 460 l 1
 161 460 199 445 199 362 c 2
 199 249 l 2
 199 212 207 193 273 175 c 1
EndSplineSet
EndChar
StartChar: asciitilde
Encoding: 126 126 95
Width: 352
Flags: HW
HStem: 129 53
Fore
350 209 m 1
 327 167 293 129 248 129 c 0
 198 129 149 174 104 174 c 0
 71 174 56 143 37 110 c 1
 3 149 l 1
 26 190 55 232 104 232 c 0
 149 232 214 186 249 186 c 0
 275 186 298 215 316 248 c 1
 350 209 l 1
EndSplineSet
EndChar
StartChar: uni0E10.descless
Encoding: 128 63232 96
Width: 331
Flags: HW
HStem: -3 29
VStem: 107 67<110 110> 207 67
Fore
288 363 m 0
 288 363 l 0
 242 245 92 408 56 311 c 1
 233 265 l 2
 243 262 274 257 274 218 c 2
 274 79 l 2
 274 32 247 -3 191 -3 c 0
 144 -3 108 35 108 79 c 1
 107 110 l 1
 101 109 97 108 91 108 c 0
 51 108 27 140 28 175 c 1
 31 208 54 233 91 233 c 0
 149 234 174 204 174 168 c 2
 174 49 l 2
 174 40 179 29 191 29 c 0
 203 29 208 40 208 48 c 2
 208 217 l 2
 208 233 202 239 194 241 c 2
 11 290 l 1
 21 321 46 391 123 389 c 0
 165 389 244 347 272 381 c 0
 280 391 299 390 288 363 c 0
91 137 m 0
 137 137 137 205 91 205 c 0
 45 205 45 137 91 137 c 0
EndSplineSet
KernsSLIF: 212 20 0 0 215 20 0 0 214 20 0 0 213 20 0 0
EndChar
StartChar: uni0E34.left
Encoding: 129 63233 97
Width: 0
Flags: HW
Fore
-152 414 m 0
 -152 414 l 0
 -272 466 -352 486 -456 464 c 1
 -412 636 -152 620 -152 414 c 0
-191 461 m 1
 -222 547 -339 582 -401 500 c 1
 -336 508 -258 495 -191 461 c 1
EndSplineSet
EndChar
StartChar: uni0E35.left
Encoding: 130 63234 98
Width: 0
Flags: HW
VStem: -235 67
Fore
-152 414 m 0
 -152 414 l 0
 -272 466 -352 486 -456 464 c 1
 -428 574 -311 597 -231 553 c 1
 -231 617 l 1
 -168 617 l 1
 -168 489 l 1
 -161 481 -152 449 -152 414 c 0
-193 462 m 1
 -218 537 -344 570 -401 500 c 1
 -336 508 -260 496 -193 462 c 1
EndSplineSet
EndChar
StartChar: uni0E36.left
Encoding: 131 63235 99
Width: 0
Flags: HW
Fore
-152 414 m 0
 -152 414 l 0
 -272 466 -352 486 -456 464 c 1
 -431 562 -337 587 -271 568 c 1
 -272 590 -253 620 -213 620 c 0
 -137 620 -136 529 -184 515 c 1
 -163 500 -152 448 -152 414 c 0
-213 533 m 0
 -213 533 l 0
 -168 533 -168 595 -213 595 c 0
 -258 595 -258 533 -213 533 c 0
-193 462 m 1
 -218 537 -344 570 -401 500 c 1
 -336 508 -260 496 -193 462 c 1
EndSplineSet
EndChar
StartChar: uni0E37.left
Encoding: 132 63236 100
Width: 0
Flags: HW
VStem: -219 51
Fore
-193 462 m 0
 -193 462 l 0
 -218 537 -344 570 -401 500 c 1
 -336 508 -260 496 -193 462 c 0
-168 484 m 1
 -160 477 -152 445 -152 414 c 1
 -272 466 -352 486 -456 464 c 1
 -436 541 -373 575 -310 574 c 1
 -309 617 l 1
 -262 617 l 1
 -261 566 l 1
 -252 564 -229 554 -220 546 c 1
 -219 617 l 1
 -169 617 l 1
 -168 484 l 1
EndSplineSet
EndChar
StartChar: ellipsis
Encoding: 133 8230 101
Width: 650
Flags: HW
HStem: -9 91<96.5 120 313 337 529.5 553>
Fore
587 37 m 0
 587 37 l 0
 587 12 566 -9 541 -9 c 0
 517 -9 497 13 497 37 c 0
 497 60 518 82 541 82 c 0
 565 82 587 61 587 37 c 0
371 37 m 0
 371 37 l 0
 371 12 349 -9 325 -9 c 0
 300 -9 280 13 280 37 c 0
 280 60 301 82 325 82 c 0
 349 82 371 61 371 37 c 0
154 37 m 0
 154 12 133 -9 108 -9 c 0
 84 -9 64 13 64 37 c 0
 64 60 85 82 108 82 c 0
 132 82 154 61 154 37 c 0
EndSplineSet
EndChar
StartChar: uni0E48.low_left
Encoding: 134 63237 102
Width: 0
Flags: HW
HStem: 448 154
VStem: -236 58
Fore
-173 603 m 1
 -183 448 l 1
 -230 448 l 1
 -241 603 l 1
 -173 603 l 1
EndSplineSet
EndChar
StartChar: uni0E49.low_left
Encoding: 135 63238 103
Width: 0
Flags: HW
VStem: -358 33
Fore
-149 612 m 1
 -149 612 l 0
 -173 408 -371 433 -406 436 c 1
 -406 462 l 1
 -376 466 -364 479 -358 493 c 1
 -358 495 l 1
 -358 495 -364 493 -375 494 c 0
 -444 505 -443 612 -362 612 c 0
 -298 612 -298 554 -298 553 c 0
 -298 498 -327 472 -327 472 c 1
 -327 470 l 1
 -327 470 -212 480 -215 612 c 1
 -149 612 l 1
-362 521 m 0
 -322 521 -322 581 -362 581 c 0
 -402 581 -402 521 -362 521 c 0
EndSplineSet
EndChar
StartChar: uni0E4A.low_left
Encoding: 136 63239 104
Width: 0
Flags: HW
HStem: 441 20<-374.5 -343.5> 511 20<-368 -344>
VStem: -424 33
Fore
-154 597 m 1
 -154 597 l 0
 -148 514 -200 441 -291 441 c 1
 -291 464 l 1
 -245 488 -257 554 -285 564 c 1
 -321 539 l 1
 -362 566 l 1
 -382 562 -391 535 -389 520 c 1
 -387 518 l 1
 -387 518 -379 531 -357 531 c 0
 -331 531 -311 514 -311 487 c 0
 -311 459 -330 441 -357 441 c 0
 -399 441 -424 478 -424 525 c 0
 -424 554 -399 598 -359 601 c 1
 -321 569 l 1
 -283 601 l 1
 -213 581 -216 517 -237 486 c 1
 -235 485 l 1
 -208 502 -189 542 -202 597 c 1
 -154 597 l 1
-358 461 m 0
 -324 461 -324 511 -358 511 c 0
 -391 511 -391 461 -358 461 c 0
EndSplineSet
EndChar
StartChar: uni0E4B.low_left
Encoding: 137 63240 105
Width: 0
Flags: HW
HStem: 450 154
VStem: -276 51
Fore
-165 504 m 1
 -226 503 l 1
 -227 450 l 1
 -275 450 l 1
 -276 503 l 1
 -337 504 l 1
 -337 552 l 1
 -276 553 l 1
 -277 606 l 1
 -225 606 l 1
 -226 553 l 1
 -165 552 l 1
 -165 504 l 1
EndSplineSet
EndChar
StartChar: uni0E4C.low_left
Encoding: 138 63241 106
Width: 0
Flags: HW
Fore
-155 621 m 1
 -155 621 l 0
 -172 558 -244 544 -260 540 c 1
 -260 538 l 1
 -244 537 -227 522 -227 495 c 0
 -227 465 -250 442 -283 442 c 0
 -319 442 -341 469 -341 499 c 0
 -341 525 -322 559 -263 570 c 0
 -233 576 -212 598 -206 635 c 1
 -155 621 l 1
-283 470 m 0
 -249 470 -249 524 -283 524 c 0
 -320 524 -320 470 -283 470 c 0
EndSplineSet
EndChar
StartChar: uni0E48.low
Encoding: 139 63242 107
Width: 0
Flags: HW
HStem: 448 154
VStem: -124 67
Fore
-57 603 m 1
 -67 448 l 1
 -119 448 l 1
 -130 603 l 1
 -57 603 l 1
EndSplineSet
EndChar
StartChar: uni0E49.low
Encoding: 140 63243 108
Width: 0
Flags: HW
HStem: 601 36
VStem: -194 33
Fore
37 633 m 1
 37 633 l 0
 15 411 -216 438 -246 441 c 1
 -246 473 l 1
 -227 475 -203 483 -194 506 c 1
 -194 508 l 1
 -194 508 -202 506 -213 507 c 0
 -286 514 -289 637 -197 637 c 0
 -129 637 -128 573 -128 572 c 0
 -128 502 -164 479 -164 479 c 1
 -163 477 l 1
 -163 477 -27 497 -33 633 c 1
 37 633 l 1
-200 536 m 0
 -154 536 -154 602 -200 602 c 0
 -241 602 -241 536 -200 536 c 0
EndSplineSet
EndChar
StartChar: uni0E4A.low
Encoding: 141 63244 109
Width: 0
Flags: HW
VStem: -308 44
Fore
13 621 m 1
 13 621 l 0
 16 523 -44 437 -152 437 c 1
 -152 464 l 1
 -97 492 -111 571 -144 582 c 1
 -188 552 l 1
 -236 585 l 1
 -260 580 -271 548 -268 531 c 1
 -265 527 l 1
 -265 527 -256 542 -230 542 c 0
 -200 542 -177 523 -177 493 c 0
 -177 459 -198 437 -230 437 c 0
 -279 437 -308 480 -308 536 c 0
 -308 571 -279 622 -232 627 c 1
 -188 590 l 1
 -142 627 l 1
 -59 603 -62 526 -87 490 c 1
 -85 488 l 1
 -53 509 -31 557 -46 621 c 1
 13 621 l 1
-230 463 m 0
 -196 463 -196 517 -230 517 c 0
 -267 517 -267 463 -230 463 c 0
EndSplineSet
EndChar
StartChar: uni0E4B.low
Encoding: 142 63245 110
Width: 0
Flags: HW
HStem: 500 53
VStem: -128 67
Fore
3 501 m 1
 -63 500 l 1
 -64 441 l 1
 -122 441 l 1
 -123 500 l 1
 -190 501 l 1
 -190 554 l 1
 -124 555 l 1
 -125 613 l 1
 -61 613 l 1
 -62 555 l 1
 3 554 l 1
 3 501 l 1
EndSplineSet
EndChar
StartChar: uni0E4C.low
Encoding: 143 63246 111
Width: 0
Flags: HW
HStem: 437 29
Fore
26 634 m 1
 26 634 l 0
 7 564 -72 549 -89 545 c 1
 -89 544 l 1
 -72 543 -53 525 -53 495 c 0
 -53 462 -78 437 -115 437 c 0
 -154 437 -178 467 -178 500 c 0
 -178 528 -157 563 -93 579 c 0
 -61 587 -36 609 -29 650 c 1
 26 634 l 1
-116 468 m 0
 -77 468 -77 527 -116 527 c 0
 -155 527 -155 468 -116 468 c 0
EndSplineSet
EndChar
StartChar: uni0E0D.descless
Encoding: 144 63247 112
Width: 519
Flags: HW
HStem: -5 29 246 29<57 76 138 147 147 180>
VStem: 54 67<119 205 205 212> 247 67<81 261> 393 67<58 65>
Fore
460 76 m 1
 460 76 l 0
 460 40 416 -5 353 -5 c 0
 292 -5 247 35 247 81 c 2
 247 261 l 2
 247 378 90 388 57 275 c 1
 180 275 l 1
 180 246 l 1
 165 246 147 246 147 246 c 2
 129 246 121 231 121 212 c 2
 121 119 l 1
 218 142 233 1 138 -4 c 0
 69 -7 54 52 54 81 c 2
 54 205 l 2
 54 219 63 243 76 246 c 1
 22 246 l 1
 28 426 305 443 314 261 c 1
 314 66 l 2
 314 44 330 27 353 27 c 0
 377 27 393 43 393 65 c 1
 394 338 l 1
 427 379 l 1
 439 386 460 396 460 359 c 0
 460 358 460 76 460 76 c 1
138 25 m 0
 184 25 184 93 138 93 c 0
 92 93 92 25 138 25 c 0
EndSplineSet
EndChar
StartChar: quoteleft
Encoding: 145 8216 113
Width: 217
Flags: HW
HStem: 294 91
VStem: 58 33
Fore
161 341 m 0
 161 312 142 294 114 294 c 0
 71 294 58 328 58 364 c 0
 58 415 102 464 141 476 c 1
 150 458 l 1
 116 443 93 405 93 383 c 0
 93 381 93 377 95 378 c 0
 103 382 106 383 118 383 c 0
 141 383 161 367 161 341 c 0
EndSplineSet
EndChar
StartChar: quoteright
Encoding: 146 8217 114
Width: 217
Flags: HW
HStem: 385 91
VStem: 125 33
Fore
158 406 m 0
 158 355 114 306 75 294 c 1
 66 312 l 1
 100 327 123 365 123 387 c 0
 123 389 123 393 121 392 c 0
 113 388 110 387 98 387 c 0
 75 387 55 403 55 429 c 0
 55 458 74 476 102 476 c 0
 145 476 158 442 158 406 c 0
EndSplineSet
EndChar
StartChar: quotedblleft
Encoding: 147 8220 115
Width: 308
Flags: HW
HStem: 294 91
VStem: 23 33 176 33
Fore
277 341 m 0
 277 341 l 0
 277 312 258 294 230 294 c 0
 187 294 174 328 174 364 c 0
 174 415 218 464 257 476 c 1
 266 458 l 1
 232 443 209 405 209 383 c 0
 209 381 209 377 211 378 c 0
 219 382 222 383 234 383 c 0
 257 383 277 367 277 341 c 0
126 341 m 0
 126 312 107 294 79 294 c 0
 36 294 23 328 23 364 c 0
 23 415 67 464 106 476 c 1
 115 458 l 1
 81 443 58 405 58 383 c 0
 58 381 58 377 60 378 c 0
 68 382 71 383 83 383 c 0
 106 383 126 367 126 341 c 0
EndSplineSet
EndChar
StartChar: quotedblright
Encoding: 148 8221 116
Width: 308
Flags: HW
HStem: 383 91
VStem: 97 33 250 33
Fore
283 404 m 0
 283 404 l 0
 283 353 239 304 200 292 c 1
 191 310 l 1
 225 325 248 363 248 385 c 0
 248 387 248 391 246 390 c 0
 238 386 235 385 223 385 c 0
 200 385 180 401 180 427 c 0
 180 456 199 474 227 474 c 0
 270 474 283 440 283 404 c 0
132 404 m 0
 132 353 88 304 49 292 c 1
 40 310 l 1
 74 325 97 363 97 385 c 0
 97 387 97 391 95 390 c 0
 87 386 84 385 72 385 c 0
 49 385 29 401 29 427 c 0
 29 456 48 474 76 474 c 0
 119 474 132 440 132 404 c 0
EndSplineSet
EndChar
StartChar: bullet
Encoding: 149 8226 117
Width: 251
Flags: HW
HStem: 115 186<100 151.5>
VStem: 33 184
Fore
218 208 m 0
 218 157 178 115 125 115 c 0
 75 115 33 157 33 208 c 0
 32 259 74 301 125 301 c 0
 178 301 218 259 218 208 c 0
EndSplineSet
EndChar
StartChar: endash
Encoding: 150 8211 118
Width: 500
Flags: HW
HStem: 131 42
Fore
486 131 m 1
 14 131 l 1
 14 178 l 1
 486 178 l 1
 486 131 l 1
EndSplineSet
EndChar
StartChar: emdash
Encoding: 151 8212 119
Width: 1000
Flags: HW
HStem: 131 42
Fore
994 131 m 1
 6 131 l 1
 6 178 l 1
 994 178 l 1
 994 131 l 1
EndSplineSet
EndChar
StartChar: uni0E31.left
Encoding: 152 63248 120
Width: 0
Flags: HW
Fore
60 601 m 1
 60 601 l 0
 36 480 -87 440 -183 440 c 0
 -260 440 -331 479 -331 536 c 0
 -331 574 -300 605 -262 605 c 0
 -221 605 -193 576 -193 538 c 0
 -193 512 -207 491 -234 480 c 1
 -152 458 -33 485 -6 601 c 1
 60 601 l 1
-262 505 m 0
 -216 505 -216 573 -262 573 c 0
 -308 573 -308 505 -262 505 c 0
EndSplineSet
EndChar
StartChar: uni0E4D.left
Encoding: 153 63249 121
Width: 0
Flags: HW
Fore
-219 438 m 0
 -219 438 l 0
 -313 438 -313 578 -219 578 c 0
 -126 578 -126 438 -219 438 c 0
-219 473 m 0
 -173 473 -173 541 -219 541 c 0
 -265 541 -265 473 -219 473 c 0
EndSplineSet
EndChar
StartChar: uni0E47.left
Encoding: 154 63250 122
Width: 0
Flags: HW
VStem: -259 27
Fore
-142 656 m 1
 -142 656 l 0
 -143 584 -194 568 -241 570 c 0
 -263 571 -304 577 -329 578 c 0
 -368 581 -388 537 -361 487 c 1
 -342 529 -289 506 -267 483 c 1
 -267 483 -258 477 -258 486 c 0
 -258 558 -148 560 -148 484 c 0
 -148 445 -180 427 -205 427 c 0
 -257 427 -287 477 -323 477 c 0
 -350 477 -347 447 -328 427 c 1
 -373 428 l 1
 -449 495 -424 622 -327 612 c 0
 -306 610 -266 606 -247 604 c 0
 -231 602 -195 604 -201 656 c 1
 -142 656 l 1
-175 484 m 0
 -175 522 -232 522 -232 484 c 0
 -232 446 -175 446 -175 484 c 0
EndSplineSet
EndChar
StartChar: uni0E48.left
Encoding: 155 63251 123
Width: 0
Flags: HW
HStem: 665 132
VStem: -218 58
Fore
-156 799 m 1
 -165 665 l 1
 -215 665 l 1
 -224 799 l 1
 -156 799 l 1
EndSplineSet
EndChar
StartChar: uni0E49.left
Encoding: 156 63252 124
Width: 0
Flags: HW
HStem: 771 29
VStem: -221 27
Fore
-35 800 m 1
 -35 800 l 0
 -56 623 -233 645 -263 647 c 1
 -263 670 l 1
 -237 673 -227 685 -221 697 c 1
 -221 699 l 1
 -221 699 -227 697 -236 698 c 0
 -296 707 -295 800 -225 800 c 0
 -169 800 -169 750 -169 749 c 0
 -169 701 -194 679 -194 679 c 1
 -194 677 l 1
 -194 677 -90 686 -93 800 c 1
 -35 800 l 1
-226 722 m 0
 -190 722 -190 773 -226 773 c 0
 -260 773 -260 722 -226 722 c 0
EndSplineSet
EndChar
StartChar: uni0E4A.left
Encoding: 157 63253 125
Width: 0
Flags: HW
VStem: -308 33
Fore
-38 798 m 1
 -38 798 l 0
 -32 715 -84 642 -175 642 c 1
 -175 665 l 1
 -129 689 -141 755 -169 765 c 1
 -205 740 l 1
 -246 767 l 1
 -266 763 -275 736 -273 721 c 1
 -271 719 l 1
 -271 719 -263 732 -241 732 c 0
 -215 732 -196 715 -196 688 c 0
 -196 660 -214 642 -241 642 c 0
 -283 642 -308 679 -308 726 c 0
 -308 755 -283 799 -243 802 c 1
 -205 770 l 1
 -167 802 l 1
 -97 782 -100 718 -121 687 c 1
 -119 686 l 1
 -92 703 -73 743 -86 798 c 1
 -38 798 l 1
-241 665 m 0
 -211 665 -211 709 -241 709 c 0
 -270 709 -270 665 -241 665 c 0
EndSplineSet
EndChar
StartChar: uni0E4B.left
Encoding: 158 63254 126
Width: 0
Flags: HW
HStem: 648 154
VStem: -218 51
Fore
-107 700 m 1
 -168 699 l 1
 -169 648 l 1
 -217 648 l 1
 -218 699 l 1
 -279 700 l 1
 -279 748 l 1
 -218 749 l 1
 -219 800 l 1
 -167 800 l 1
 -168 749 l 1
 -107 748 l 1
 -107 700 l 1
EndSplineSet
EndChar
StartChar: uni0E4C.left
Encoding: 159 63255 127
Width: 0
Flags: HW
Fore
-73 782 m 1
 -73 782 l 0
 -90 719 -162 707 -178 703 c 1
 -178 701 l 1
 -162 700 -145 683 -145 656 c 0
 -145 626 -168 603 -201 603 c 0
 -237 603 -259 630 -259 660 c 0
 -259 686 -240 720 -181 731 c 0
 -151 737 -130 759 -124 796 c 1
 -73 782 l 1
-201 630 m 0
 -167 630 -167 684 -201 684 c 0
 -238 684 -238 630 -201 630 c 0
EndSplineSet
EndChar
StartChar: uni0E01
Encoding: 161 3585 129
Width: 392
Flags: HW
HStem: 0 20 246 29<58 76 139 148 148 180>
VStem: 54 67 266 67
Fore
333 0 m 1
 267 0 l 1
 267 260 l 2
 267 379 90 386 58 275 c 1
 180 275 l 1
 180 246 l 1
 165 246 148 246 148 246 c 2
 130 246 122 231 122 212 c 2
 122 0 l 1
 54 0 l 1
 54 205 l 2
 54 219 63 243 76 246 c 1
 22 246 l 1
 28 424 322 444 333 263 c 1
 333 0 l 1
EndSplineSet
EndChar
StartChar: uni0E02
Encoding: 162 3586 130
Width: 381
Flags: HW
HStem: -5 29
VStem: 10 33 146 67<77 284> 255 67
Fore
322 77 m 1
 322 77 l 0
 322 30 291 -5 234 -5 c 0
 182 -5 146 31 146 77 c 2
 146 307 l 2
 146 367 37 377 40 284 c 1
 50 300 65 304 79 304 c 0
 114 304 135 280 135 250 c 0
 135 221 115 194 79 194 c 0
 24 194 6 251 10 298 c 0
 14 348 49 389 111 389 c 0
 176 389 213 343 213 284 c 2
 213 45 l 2
 213 35 222 25 234 25 c 0
 245 25 255 35 255 44 c 1
 257 341 l 1
 289 382 l 1
 301 389 322 399 322 362 c 0
 322 361 322 77 322 77 c 1
79 217 m 0
 122 217 122 281 79 281 c 0
 36 281 36 217 79 217 c 0
EndSplineSet
EndChar
StartChar: uni0E03
Encoding: 163 3587 131
Width: 415
Flags: HW
HStem: -5 29
VStem: 179 67 288 67
Fore
355 77 m 1
 355 77 l 0
 355 30 324 -5 267 -5 c 0
 215 -5 178 33 178 77 c 2
 178 316 l 2
 178 329 174 339 163 342 c 1
 121 299 l 1
 73 349 l 1
 53 335 35 310 42 257 c 1
 53 274 73 278 85 278 c 0
 163 276 162 166 85 166 c 0
 26 166 11 225 10 278 c 0
 9 311 23 364 76 390 c 1
 121 342 l 1
 167 390 l 1
 230 383 246 339 246 296 c 2
 246 45 l 2
 246 35 253 25 267 25 c 0
 280 25 288 35 288 44 c 1
 289 341 l 1
 322 382 l 1
 334 389 355 399 355 362 c 0
 355 361 355 77 355 77 c 1
85 190 m 0
 128 190 128 254 85 254 c 0
 42 254 42 190 85 190 c 0
EndSplineSet
EndChar
StartChar: uni0E04
Encoding: 164 3588 132
Width: 384
Flags: HW
HStem: 0 208<74 76> 361 29
VStem: 16 33 58 67<0 134> 259 67
Fore
326 0 m 1
 260 0 l 1
 260 253 l 2
 260 315 228 356 162 356 c 0
 92 356 48 314 48 261 c 0
 48 235 66 217 74 208 c 1
 76 208 l 1
 88 252 109 289 168 289 c 0
 255 289 257 162 169 162 c 0
 153 162 138 168 130 174 c 1
 126 167 125 152 125 134 c 2
 125 0 l 1
 58 0 l 1
 58 152 l 2
 58 179 16 198 16 261 c 0
 16 342 80 390 161 390 c 0
 251 390 326 358 326 263 c 2
 326 0 l 1
169 191 m 0
 215 191 215 259 169 259 c 0
 123 259 123 191 169 191 c 0
EndSplineSet
EndChar
StartChar: uni0E05
Encoding: 165 3589 133
Width: 385
Flags: HW
HStem: 0 192<80 82>
VStem: 16 33 58 67<0 121> 258 67
Fore
325 0 m 1
 259 0 l 1
 259 252 l 2
 259 289 261 328 225 348 c 1
 167 299 l 1
 110 348 l 1
 88 343 48 309 48 261 c 0
 48 236 62 213 80 192 c 1
 82 192 l 1
 93 225 111 269 168 269 c 0
 255 269 257 142 169 142 c 0
 153 142 140 145 130 154 c 1
 126 147 125 128 125 121 c 2
 125 0 l 1
 58 0 l 1
 58 149 l 2
 58 172 16 198 16 261 c 0
 16 342 73 375 113 389 c 1
 167 339 l 1
 222 388 l 1
 262 378 325 357 325 252 c 2
 325 0 l 1
170 171 m 0
 216 171 216 239 170 239 c 0
 124 239 124 171 170 171 c 0
EndSplineSet
EndChar
StartChar: uni0E06
Encoding: 166 3590 134
Width: 493
Flags: HW
HStem: -5 20
VStem: 178 67 364 67
Fore
431 0 m 0
 375 0 l 0
 334 78 270 99 247 106 c 1
 248 50 245 -5 184 -5 c 0
 86 -5 90 137 178 145 c 1
 178 316 l 2
 178 329 174 339 163 342 c 1
 121 299 l 1
 73 349 l 1
 53 335 35 310 42 257 c 1
 53 274 73 278 85 278 c 0
 163 276 162 166 85 166 c 0
 26 166 11 225 10 278 c 0
 9 311 23 364 76 390 c 1
 121 342 l 1
 167 390 l 1
 230 383 246 339 246 296 c 2
 246 139 l 1
 266 134 323 119 365 78 c 1
 366 338 l 1
 399 379 l 1
 409 387 433 396 431 359 c 0
 431 358 431 37 431 0 c 0
178 52 m 0
 178 113 l 0
 136 108 130 38 170 38 c 0
 175 38 178 43 178 52 c 0
85 190 m 0
 128 190 128 254 85 254 c 0
 42 254 42 190 85 190 c 0
EndSplineSet
EndChar
StartChar: uni0E07
Encoding: 167 3591 135
Width: 312
Flags: HW
HStem: 0 20
VStem: 187 67
Fore
254 0 m 1
 189 0 l 1
 23 193 l 1
 24 230 l 1
 186 76 l 1
 186 260 l 1
 180 258 173 257 167 257 c 0
 82 257 77 387 172 387 c 0
 260 387 254 319 254 310 c 0
 254 309 254 0 254 0 c 1
165 287 m 0
 211 287 211 355 165 355 c 0
 119 355 119 287 165 287 c 0
EndSplineSet
EndChar
StartChar: uni0E08
Encoding: 168 3592 136
Width: 368
Flags: HW
HStem: -3 29 154 29<95.5 119> 252 29
VStem: 132 67<79 156 156 156> 242 67
Fore
309 79 m 1
 309 79 l 0
 309 32 277 -3 220 -3 c 0
 173 -3 132 35 132 79 c 2
 132 156 l 1
 127 155 122 154 116 154 c 0
 75 154 49 186 52 223 c 0
 55 256 80 281 120 281 c 0
 180 281 199 248 199 213 c 2
 199 49 l 2
 199 39 207 29 220 29 c 0
 234 29 241 39 241 48 c 2
 241 270 l 2
 241 375 86 379 40 280 c 1
 15 293 l 1
 85 444 309 402 309 269 c 2
 309 79 l 1
115 183 m 0
 161 183 161 251 115 251 c 0
 69 251 69 183 115 183 c 0
EndSplineSet
EndChar
StartChar: uni0E09
Encoding: 169 3593 137
Width: 401
Flags: HW
HStem: -5 29 127 29<89 93> 225 29
VStem: 107 67 273 67<136.5 147 147 268>
Fore
340 147 m 0
 340 147 l 0
 340 126 330 120 330 120 c 1
 330 118 l 1
 389 101 387 -5 304 -5 c 0
 255 -5 229 42 246 78 c 1
 192 60 164 13 161 0 c 1
 107 0 l 1
 107 129 l 1
 102 128 96 127 90 127 c 0
 49 127 25 161 27 195 c 0
 29 228 54 254 94 254 c 0
 154 254 173 221 173 186 c 2
 173 186 173 129 173 100 c 0
 173 85 170 71 170 71 c 1
 182 85 214 114 273 119 c 1
 273 274 l 2
 273 372 100 384 48 280 c 1
 23 293 l 1
 87 438 340 412 340 268 c 2
 340 268 340 148 340 147 c 0
89 156 m 0
 89 156 l 0
 135 156 135 224 89 224 c 0
 43 224 43 156 89 156 c 0
305 23 m 0
 351 23 351 91 305 91 c 0
 259 91 259 23 305 23 c 0
EndSplineSet
EndChar
StartChar: uni0E0A
Encoding: 170 3594 138
Width: 380
Flags: HW
HStem: 0 29<102 146 212 231 231 240> 261 29
VStem: 10 33 146 67<290 306 306 315.5>
Fore
360 387 m 1
 360 387 l 0
 350 310 308 283 266 272 c 1
 359 268 373 0 240 0 c 2
 102 0 l 1
 102 29 l 1
 146 29 l 1
 146 306 l 2
 146 366 37 377 40 284 c 1
 50 300 65 304 79 304 c 0
 114 304 135 280 135 250 c 0
 135 221 115 194 79 194 c 0
 24 194 6 251 10 298 c 0
 14 348 49 389 111 389 c 0
 176 389 213 341 213 290 c 1
 262 292 285 346 286 387 c 1
 360 387 l 1
238 251 m 0
 238 251 l 0
 231 255 219 256 212 256 c 1
 212 29 l 1
 231 29 l 2
 283 29 283 220 238 251 c 0
79 217 m 0
 122 217 122 281 79 281 c 0
 36 281 36 217 79 217 c 0
EndSplineSet
EndChar
StartChar: uni0E0B
Encoding: 171 3595 139
Width: 423
Flags: HW
HStem: 0 29<137 178 246 265 265 274> 251 42
VStem: 179 67
Fore
394 387 m 1
 394 387 l 0
 384 310 342 283 300 272 c 1
 393 268 407 0 274 0 c 2
 137 0 l 1
 137 29 l 1
 178 29 l 1
 178 316 l 2
 178 329 174 339 163 342 c 1
 121 299 l 1
 73 349 l 1
 53 335 35 310 42 257 c 1
 53 274 73 278 85 278 c 0
 163 276 162 166 85 166 c 0
 26 166 11 225 10 278 c 0
 9 311 23 364 76 390 c 1
 121 342 l 1
 167 390 l 1
 230 383 246 339 246 296 c 2
 246 293 l 1
 298 295 319 346 320 387 c 1
 394 387 l 1
272 251 m 0
 272 251 l 0
 265 255 253 256 246 256 c 1
 246 29 l 1
 265 29 l 2
 317 29 317 220 272 251 c 0
85 190 m 0
 128 190 128 254 85 254 c 0
 42 254 42 190 85 190 c 0
EndSplineSet
EndChar
StartChar: uni0E0C
Encoding: 172 3596 140
Width: 521
Flags: HW
HStem: -5 29 246 29<58 76 138 147 147 180>
VStem: 54 67<119 205 205 212> 266 67 403 67<86 86>
Fore
268 46 m 0
 268 94 l 0
 242 92 231 55 248 38 c 0
 254 32 268 33 268 46 c 0
121 119 m 0
 121 119 l 0
 205 126 214 -4 126 -4 c 0
 65 -4 54 50 54 79 c 2
 54 205 l 2
 54 219 63 243 76 246 c 1
 22 246 l 1
 28 425 323 444 333 262 c 1
 333 120 l 1
 345 117 382 109 403 86 c 1
 404 338 l 1
 437 379 l 1
 449 386 470 396 470 359 c 0
 470 358 470 37 470 0 c 1
 416 0 l 1
 413 51 362 84 333 88 c 1
 333 34 328 -5 272 -5 c 0
 187 -5 190 119 267 124 c 1
 267 263 l 2
 267 377 89 387 58 275 c 1
 180 275 l 1
 180 246 l 1
 165 246 147 246 147 246 c 2
 129 246 121 231 121 212 c 2
 121 212 121 149 121 119 c 0
124 24 m 0
 170 24 170 92 124 92 c 0
 78 92 78 24 124 24 c 0
EndSplineSet
EndChar
StartChar: uni0E0D
Encoding: 173 3597 141
Width: 521
Flags: HW
HStem: -5 29 246 29<57 76 138 147 147 180>
VStem: 54 67<119 205 205 212> 247 67<81 261> 337 20<-69 -69 -69 -58.5> 393 67<58 65>
Fore
460 76 m 1
 460 76 l 0
 460 40 416 -5 353 -5 c 0
 292 -5 247 35 247 81 c 2
 247 261 l 2
 247 378 90 388 57 275 c 1
 180 275 l 1
 180 246 l 1
 165 246 147 246 147 246 c 2
 129 246 121 231 121 212 c 2
 121 119 l 1
 218 142 233 2 138 -3 c 0
 69 -6 54 52 54 81 c 2
 54 205 l 2
 54 219 63 243 76 246 c 1
 22 246 l 1
 28 426 305 443 314 261 c 1
 314 66 l 2
 314 44 330 27 353 27 c 0
 377 27 393 43 393 65 c 1
 394 338 l 1
 427 379 l 1
 439 386 460 396 460 359 c 0
 460 358 460 76 460 76 c 1
460 -71 m 1
 460 -71 l 0
 460 -184 249 -197 249 -73 c 0
 249 -54 263 -20 306 -20 c 0
 341 -20 357 -45 357 -72 c 0
 357 -96 336 -119 309 -115 c 1
 309 -118 l 1
 345 -143 398 -119 398 -74 c 2
 398 -28 l 1
 460 -28 l 1
 460 -71 l 1
337 -69 m 0
 337 -69 l 0
 337 -31 278 -31 278 -69 c 0
 278 -109 337 -109 337 -69 c 0
138 25 m 0
 184 25 184 93 138 93 c 0
 92 93 92 25 138 25 c 0
EndSplineSet
EndChar
StartChar: uni0E0E
Encoding: 174 3598 142
Width: 399
Flags: HW
HStem: 246 29<67 84 146 155 155 189>
VStem: 62 67 273 67<-50 265>
Fore
340 -157 m 1
 285 -157 l 0
 267 -119 232 -95 196 -77 c 1
 171 -169 48 -164 48 -86 c 0
 48 -40 101 -10 177 -33 c 1
 190 -3 204 4 213 10 c 1
 245 -6 l 1
 229 -14 217 -27 209 -46 c 1
 229 -52 259 -68 275 -83 c 1
 275 -83 273 -66 273 -50 c 2
 273 269 l 2
 273 378 95 384 67 275 c 1
 189 275 l 1
 189 246 l 1
 155 246 l 2
 137 246 128 225 128 207 c 2
 128 60 l 2
 128 19 100 -3 65 -3 c 0
 -17 -3 -18 119 62 122 c 1
 62 198 l 2
 62 214 71 243 84 246 c 1
 31 246 l 1
 37 424 329 444 340 265 c 1
 340 -157 l 1
165 -65 m 1
 165 -65 l 0
 122 -53 82 -56 82 -88 c 0
 82 -119 145 -126 163 -71 c 2
 165 -65 l 1
65 25 m 0
 111 25 111 93 65 93 c 0
 19 93 19 25 65 25 c 0
EndSplineSet
EndChar
StartChar: uni0E0F
Encoding: 175 3599 143
Width: 399
Flags: HW
HStem: 246 29<67 84 146 155 155 189>
VStem: -18 33 61 67<122 198 198 206> 273 67<-80 265>
Fore
340 -156 m 1
 286 -156 l 0
 267 -91 203 -79 176 -156 c 1
 148 -156 l 1
 143 -135 128 -112 115 -100 c 1
 93 -183 -18 -167 -18 -98 c 0
 -18 -35 48 -16 101 -48 c 1
 109 -29 127 -13 153 -3 c 1
 175 -28 l 1
 156 -33 135 -49 128 -68 c 1
 142 -75 156 -96 163 -110 c 1
 182 -67 234 -51 273 -80 c 1
 273 269 l 2
 273 378 95 384 67 275 c 1
 189 275 l 1
 189 246 l 1
 155 246 l 2
 137 246 128 225 128 207 c 2
 128 60 l 2
 128 19 100 -5 65 -5 c 0
 -17 -5 -20 119 61 122 c 1
 61 198 l 2
 61 214 71 243 84 246 c 1
 31 246 l 1
 37 424 329 444 340 265 c 1
 340 -156 l 1
88 -78 m 0
 88 -78 l 0
 47 -50 14 -71 14 -96 c 0
 14 -130 75 -140 88 -78 c 0
65 24 m 0
 111 24 111 92 65 92 c 0
 19 92 19 24 65 24 c 0
EndSplineSet
EndChar
StartChar: uni0E10
Encoding: 176 3600 144
Width: 331
Flags: HW
HStem: -188 29 -157 29 -48 29 -3 29
VStem: 112 67 207 67
Fore
288 363 m 0
 288 363 l 0
 242 245 92 408 56 311 c 1
 233 265 l 2
 243 262 274 257 274 218 c 2
 274 69 l 2
 274 22 247 -3 191 -3 c 0
 144 -3 108 25 108 69 c 2
 108 110 l 1
 102 109 97 108 91 108 c 0
 51 108 27 140 28 175 c 1
 31 208 54 233 91 233 c 0
 149 234 174 204 174 168 c 2
 174 49 l 2
 174 40 179 29 191 29 c 0
 203 29 208 40 208 48 c 2
 208 217 l 2
 208 233 202 239 194 241 c 2
 11 290 l 1
 21 321 46 391 123 389 c 0
 165 389 244 347 272 381 c 0
 280 391 299 390 288 363 c 0
273 -142 m 1
 273 -142 l 0
 273 -162 264 -188 231 -188 c 2
 112 -188 l 1
 112 -147 l 2
 112 -132 113 -116 107 -108 c 1
 106 -137 87 -158 55 -158 c 0
 30 -158 12 -145 5 -119 c 0
 -4 -86 27 -41 78 -55 c 1
 79 -46 80 -38 86 -30 c 1
 117 -34 l 1
 109 -43 106 -57 107 -69 c 1
 147 -87 144 -141 144 -157 c 1
 204 -157 l 2
 215 -157 215 -139 214 -128 c 1
 209 -130 l 2
 205 -132 199 -132 191 -131 c 0
 125 -125 128 -22 200 -22 c 0
 245 -22 268 -44 273 -84 c 1
 273 -142 l 1
202 -108 m 0
 202 -108 l 0
 240 -108 240 -48 202 -48 c 0
 160 -48 160 -108 202 -108 c 0
79 -81 m 0
 79 -81 l 0
 61 -76 31 -81 31 -106 c 0
 31 -119 39 -131 55 -131 c 0
 75 -131 85 -104 79 -81 c 0
91 137 m 0
 137 137 137 205 91 205 c 0
 45 205 45 137 91 137 c 0
EndSplineSet
KernsSLIF: 212 20 1 0 215 20 1 0 214 20 1 0 213 20 1 0
EndChar
StartChar: uni0E11
Encoding: 177 3601 145
Width: 508
Flags: HW
HStem: 0 20
VStem: 179 67 380 67<0 308 308 314>
Fore
447 0 m 1
 380 0 l 1
 380 308 l 2
 380 334 349 344 336 306 c 2
 233 0 l 1
 179 0 l 1
 179 316 l 2
 179 329 174 339 163 342 c 1
 121 299 l 1
 73 349 l 1
 53 335 35 310 42 257 c 1
 53 274 73 278 85 278 c 0
 163 276 162 166 85 166 c 0
 26 166 11 225 10 278 c 0
 9 311 23 364 76 390 c 1
 121 342 l 1
 167 390 l 1
 230 383 245 339 245 296 c 2
 245 178 l 2
 245 160 242 147 241 134 c 1
 244 133 l 1
 244 133 251 161 256 175 c 2
 305 319 l 2
 339 420 447 403 447 314 c 2
 447 0 l 1
85 190 m 0
 128 190 128 254 85 254 c 0
 42 254 42 190 85 190 c 0
EndSplineSet
EndChar
StartChar: uni0E12
Encoding: 178 3602 146
Width: 520
Flags: HW
HStem: -5 132 246 29
VStem: 16 33<228.5 286> 58 67<0 42> 258 67 395 67<86 86>
Fore
462 0 m 0
 408 0 l 0
 405 51 354 84 325 88 c 1
 325 34 320 -5 264 -5 c 0
 179 -5 182 119 259 124 c 1
 259 261 l 2
 259 314 250 333 225 348 c 1
 167 299 l 1
 110 348 l 1
 87 341 49 310 49 262 c 0
 49 195 103 148 112 107 c 1
 132 139 170 153 163 153 c 0
 125 153 105 183 105 215 c 0
 105 224 111 275 166 275 c 0
 220 275 250 226 221 171 c 0
 196 123 131 95 125 42 c 1
 125 0 l 1
 58 0 l 1
 58 71 l 2
 58 103 16 170 16 250 c 0
 16 348 81 378 113 389 c 1
 167 339 l 1
 223 389 l 1
 265 378 325 351 325 258 c 2
 325 120 l 1
 337 117 374 109 395 86 c 1
 396 338 l 1
 429 379 l 1
 441 386 462 396 462 359 c 0
 462 358 462 37 462 0 c 0
259 44 m 0
 259 95 l 0
 232 93 220 54 238 36 c 0
 245 29 259 30 259 44 c 0
167 179 m 0
 213 179 213 247 167 247 c 0
 121 247 121 179 167 179 c 0
EndSplineSet
EndChar
StartChar: uni0E13
Encoding: 179 3603 147
Width: 521
Flags: HW
HStem: -6 20 246 29<57 76 138 147 147 180>
VStem: 54 67<119 205 205 212> 247 67<82 261> 393 67
Fore
460 132 m 0
 460 132 l 0
 460 126 456 114 452 110 c 1
 507 91 501 -6 427 -6 c 0
 395 -6 373 11 367 40 c 0
 364 54 365 72 376 85 c 1
 334 66 316 15 312 0 c 1
 247 0 l 1
 247 261 l 2
 247 378 90 388 57 275 c 1
 180 275 l 1
 180 246 l 1
 165 246 147 246 147 246 c 2
 129 246 121 231 121 212 c 2
 121 119 l 1
 218 142 233 1 138 -4 c 0
 69 -7 54 52 54 81 c 2
 54 205 l 2
 54 219 63 243 76 246 c 1
 22 246 l 1
 28 426 305 443 314 261 c 1
 314 82 l 1
 328 96 355 120 393 119 c 1
 394 340 l 1
 427 381 l 1
 439 388 460 398 460 361 c 0
 460 360 460 140 460 132 c 0
427 22 m 0
 427 22 l 0
 470 22 470 86 427 86 c 0
 384 86 384 22 427 22 c 0
138 25 m 0
 184 25 184 93 138 93 c 0
 92 93 92 25 138 25 c 0
EndSplineSet
KernsSLIF: 212 -10 1 0 215 -10 1 0 214 -10 1 0 213 -10 1 0
EndChar
StartChar: uni0E14
Encoding: 180 3604 148
Width: 396
Flags: HW
HStem: 0 20 264 29 360 29
VStem: 25 33<235 288.5> 66 67 271 67
Fore
338 0 m 1
 272 0 l 1
 272 268 l 2
 272 306 248 357 181 357 c 0
 102 357 58 317 58 260 c 0
 58 210 102 156 119 106 c 1
 139 138 180 171 173 171 c 0
 135 171 114 201 114 233 c 0
 114 242 121 293 176 293 c 0
 230 293 259 244 230 189 c 0
 205 141 134 75 132 42 c 1
 132 0 l 1
 66 0 l 1
 66 61 l 2
 66 115 25 176 25 250 c 0
 25 374 131 389 181 389 c 0
 260 389 338 355 338 268 c 2
 338 0 l 1
177 197 m 0
 223 197 223 265 177 265 c 0
 131 265 131 197 177 197 c 0
EndSplineSet
EndChar
StartChar: uni0E15
Encoding: 181 3605 149
Width: 398
Flags: HW
HStem: 0 20 246 29
VStem: 25 33<233.5 286> 67 67<0 42> 271 67
Fore
338 0 m 1
 272 0 l 1
 272 261 l 2
 272 314 263 333 238 348 c 1
 176 299 l 1
 119 348 l 1
 96 341 58 310 58 262 c 0
 58 205 113 146 122 105 c 1
 142 137 179 153 172 153 c 0
 134 153 114 183 114 215 c 0
 114 224 120 275 175 275 c 0
 229 275 259 226 230 171 c 0
 205 123 140 95 134 42 c 1
 134 0 l 1
 67 0 l 1
 67 61 l 2
 67 125 25 166 25 250 c 0
 25 348 90 378 122 389 c 1
 176 339 l 1
 236 389 l 1
 278 378 338 351 338 258 c 2
 338 0 l 1
176 179 m 0
 222 179 222 247 176 247 c 0
 130 247 130 179 176 179 c 0
EndSplineSet
EndChar
StartChar: uni0E16
Encoding: 182 3606 150
Width: 392
Flags: HW
HStem: -4 29 246 29<58 76 138 147 147 180>
VStem: 54 67<119 205 205 212> 266 67
Fore
333 0 m 1
 267 0 l 1
 267 263 l 2
 267 377 89 387 58 275 c 1
 180 275 l 1
 180 246 l 1
 165 246 147 246 147 246 c 2
 129 246 121 231 121 212 c 2
 121 212 121 149 121 119 c 1
 210 138 227 1 136 -4 c 0
 67 -8 54 50 54 79 c 2
 54 205 l 2
 54 219 63 243 76 246 c 1
 22 246 l 1
 28 425 323 444 333 262 c 1
 333 0 l 1
134 24 m 0
 180 24 180 92 134 92 c 0
 88 92 88 24 134 24 c 0
EndSplineSet
EndChar
StartChar: uni0E17
Encoding: 183 3607 151
Width: 427
Flags: HW
HStem: 0 20
VStem: 100 67 301 67<0 308 308 314>
Fore
368 0 m 1
 301 0 l 1
 301 308 l 2
 301 334 270 344 257 306 c 2
 154 0 l 1
 100 0 l 1
 100 260 l 1
 93 257 88 256 81 256 c 0
 -7 256 -11 388 85 388 c 0
 172 388 166 320 166 312 c 2
 166 178 l 2
 166 160 163 147 162 134 c 1
 165 133 l 1
 165 133 172 161 177 175 c 2
 226 319 l 2
 261 423 368 403 368 314 c 2
 368 0 l 1
80 287 m 0
 126 287 126 355 80 355 c 0
 34 355 34 287 80 287 c 0
EndSplineSet
EndChar
StartChar: uni0E18
Encoding: 184 3608 152
Width: 331
Flags: HW
HStem: 0 29<26 55 122 163 163 177.5>
VStem: 55 67<29 237> 206 67
Fore
287 363 m 0
 241 245 91 408 55 311 c 1
 232 265 l 2
 242 262 273 257 273 218 c 2
 273 78 l 2
 273 25 246 0 199 0 c 2
 26 0 l 1
 26 29 l 1
 55 29 l 1
 55 237 l 1
 122 237 l 1
 122 29 l 1
 163 29 l 2
 192 29 207 40 207 66 c 2
 207 217 l 2
 207 233 201 239 193 241 c 2
 10 290 l 1
 20 321 45 391 122 389 c 0
 164 389 243 347 271 381 c 0
 279 391 298 390 287 363 c 0
EndSplineSet
EndChar
StartChar: uni0E19
Encoding: 185 3609 153
Width: 432
Flags: HW
HStem: -5 20 86 36
VStem: 100 67 297 67
Fore
364 139 m 0
 364 139 l 0
 364 134 359 123 354 119 c 1
 414 97 405 -5 328 -5 c 0
 271 -5 250 52 272 86 c 1
 200 81 160 22 153 0 c 1
 100 0 l 1
 100 258 l 1
 93 256 87 256 80 256 c 0
 -7 254 -11 389 84 389 c 0
 172 389 166 321 166 313 c 0
 166 312 166 172 166 96 c 0
 166 88 165 80 164 72 c 1
 191 99 224 120 297 121 c 1
 298 342 l 1
 332 384 l 1
 341 390 364 401 364 363 c 2
 364 363 364 146 364 139 c 0
328 25 m 0
 328 25 l 0
 371 25 371 89 328 89 c 0
 285 89 285 25 328 25 c 0
79 288 m 0
 125 288 125 356 79 356 c 0
 33 356 33 288 79 288 c 0
EndSplineSet
KernsSLIF: 212 -30 1 0 215 -30 1 0 214 -30 1 0 213 -30 1 0
EndChar
StartChar: uni0E1A
Encoding: 186 3610 154
Width: 423
Flags: HW
HStem: 0 29<64 100 166 260 260 269>
VStem: 100 67 296 67
Fore
363 78 m 0
 363 78 l 0
 365 48 346 0 287 0 c 2
 64 0 l 1
 64 29 l 1
 100 29 l 1
 100 258 l 1
 93 257 86 256 81 256 c 0
 -9 256 -10 389 85 389 c 0
 172 389 166 320 166 312 c 0
 166 311 166 76 166 29 c 1
 260 29 l 2
 278 29 298 41 296 69 c 1
 297 341 l 1
 331 382 l 1
 343 390 365 399 363 362 c 0
 363 361 363 97 363 78 c 0
79 288 m 0
 125 288 125 356 79 356 c 0
 33 356 33 288 79 288 c 0
EndSplineSet
EndChar
StartChar: uni0E1B
Encoding: 187 3611 155
Width: 433
Flags: HW
HStem: 0 29<64 100 166 270 270 279>
VStem: 100 67 306 67
Fore
373 78 m 0
 373 78 l 0
 375 48 356 0 297 0 c 2
 64 0 l 1
 64 29 l 1
 100 29 l 1
 100 258 l 1
 93 257 86 256 81 256 c 0
 -9 256 -10 389 85 389 c 0
 172 389 166 320 166 312 c 0
 166 311 166 76 166 29 c 1
 270 29 l 2
 288 29 308 41 306 69 c 1
 307 588 l 1
 341 629 l 1
 353 637 375 646 373 609 c 0
 373 608 373 97 373 78 c 0
79 288 m 0
 125 288 125 356 79 356 c 0
 33 356 33 288 79 288 c 0
EndSplineSet
EndChar
StartChar: uni0E1C
Encoding: 188 3612 156
Width: 423
Flags: HW
HStem: 0 20
VStem: 52 67 296 67<0 22 22 28 116 135.5>
Fore
363 0 m 1
 296 0 l 1
 296 22 l 2
 296 34 290 39 289 43 c 1
 211 187 l 1
 126 43 l 1
 125 39 120 35 120 22 c 2
 120 0 l 1
 52 0 l 1
 52 311 l 2
 52 351 70 389 135 389 c 0
 229 389 226 242 118 260 c 1
 118 260 118 145 118 122 c 0
 118 106 114 84 114 84 c 1
 114 84 127 110 132 119 c 0
 199 228 211 249 211 249 c 1
 211 249 223 228 284 122 c 0
 290 112 300 86 300 86 c 1
 300 86 296 108 296 124 c 0
 296 147 297 340 297 340 c 1
 331 381 l 1
 343 389 365 398 363 361 c 0
 363 360 363 0 363 0 c 1
135 290 m 0
 181 290 181 358 135 358 c 0
 89 358 89 290 135 290 c 0
EndSplineSet
EndChar
StartChar: uni0E1D
Encoding: 189 3613 157
Width: 431
Flags: HW
HStem: 0 20
VStem: 52 67 306 67<0 22 22 28 116 135.5>
Fore
373 0 m 1
 306 0 l 1
 306 22 l 2
 306 34 300 39 299 43 c 1
 216 192 l 1
 126 43 l 1
 125 39 120 35 120 22 c 2
 120 0 l 1
 52 0 l 1
 52 311 l 2
 52 351 70 389 135 389 c 0
 229 389 226 242 118 260 c 1
 118 260 118 145 118 122 c 0
 118 106 114 84 114 84 c 1
 114 84 127 110 132 119 c 0
 199 228 216 254 216 254 c 1
 216 254 233 228 294 122 c 0
 300 112 310 86 310 86 c 1
 310 86 306 108 306 124 c 0
 306 147 307 582 307 582 c 1
 341 623 l 1
 353 631 375 640 373 603 c 0
 373 602 373 0 373 0 c 1
135 290 m 0
 181 290 181 358 135 358 c 0
 89 358 89 290 135 290 c 0
EndSplineSet
EndChar
StartChar: uni0E1E
Encoding: 190 3614 158
Width: 471
Flags: HW
HStem: 0 105
VStem: 101 58 344 67
Fore
411 0 m 1
 348 0 l 1
 256 293 l 1
 163 0 l 1
 101 0 l 1
 101 257 l 1
 94 256 87 255 82 255 c 0
 -7 255 -10 387 86 387 c 0
 173 387 167 320 167 312 c 0
 167 311 167 165 167 165 c 2
 167 147 161 104 161 104 c 1
 165 104 l 1
 165 104 172 141 178 162 c 1
 252 383 l 1
 260 383 l 1
 334 162 l 1
 340 141 347 104 347 104 c 1
 351 104 l 1
 351 104 345 147 345 165 c 1
 346 344 l 1
 380 385 l 1
 392 393 413 403 411 365 c 0
 411 364 411 0 411 0 c 1
80 287 m 0
 126 287 126 355 80 355 c 0
 34 355 34 287 80 287 c 0
EndSplineSet
EndChar
StartChar: uni0E1F
Encoding: 191 3615 159
Width: 471
Flags: HW
HStem: 0 105
VStem: 101 58 344 67
Fore
411 0 m 1
 348 0 l 1
 256 293 l 1
 163 0 l 1
 101 0 l 1
 101 257 l 1
 94 256 87 255 82 255 c 0
 -7 255 -10 387 86 387 c 0
 173 387 167 320 167 312 c 0
 167 311 167 165 167 165 c 2
 167 147 161 104 161 104 c 1
 165 104 l 1
 165 104 172 141 178 162 c 1
 252 383 l 1
 260 383 l 1
 334 162 l 1
 340 141 347 104 347 104 c 1
 351 104 l 1
 351 104 345 147 345 165 c 1
 346 582 l 1
 380 623 l 1
 392 631 413 641 411 603 c 0
 411 602 411 0 411 0 c 1
80 287 m 0
 126 287 126 355 80 355 c 0
 34 355 34 287 80 287 c 0
EndSplineSet
EndChar
StartChar: uni0E20
Encoding: 192 3616 160
Width: 402
Flags: HW
HStem: -5 20 246 29<71 88 150 159 159 193>
VStem: 65 67<122 198 198 206> 277 67<0 265>
Fore
344 0 m 1
 277 0 l 1
 277 269 l 2
 277 378 99 384 71 275 c 1
 193 275 l 1
 193 246 l 1
 159 246 l 2
 141 246 132 225 132 207 c 2
 132 60 l 2
 132 19 104 -5 69 -5 c 0
 -13 -5 -16 119 65 122 c 1
 65 198 l 2
 65 214 75 243 88 246 c 1
 35 246 l 1
 41 424 333 444 344 265 c 1
 344 0 l 1
69 24 m 0
 115 24 115 92 69 92 c 0
 23 92 23 24 69 24 c 0
EndSplineSet
EndChar
StartChar: uni0E21
Encoding: 193 3617 161
Width: 425
Flags: HW
HStem: -5 154
VStem: 100 67 300 67
Fore
367 0 m 0
 306 0 l 0
 279 52 243 92 166 115 c 1
 166 90 167 68 165 51 c 0
 159 14 143 -5 104 -5 c 0
 3 -6 6 145 100 152 c 1
 100 257 l 1
 93 256 86 255 81 255 c 0
 -7 255 -11 387 85 387 c 0
 172 387 166 320 166 312 c 0
 166 311 166 179 166 146 c 1
 200 140 262 114 301 74 c 1
 301 341 l 1
 336 383 l 1
 344 390 369 401 367 362 c 0
 367 361 367 37 367 0 c 0
100 49 m 0
 100 122 l 0
 64 121 40 64 77 38 c 0
 84 34 100 34 100 49 c 0
79 287 m 0
 125 287 125 355 79 355 c 0
 33 355 33 287 79 287 c 0
EndSplineSet
EndChar
StartChar: uni0E22
Encoding: 194 3618 162
Width: 393
Flags: HW
HStem: -5 29 184 29<155 181> 261 29
VStem: 48 67<106 122 121.5 132> 266 67
Fore
333 113 m 1
 333 113 l 0
 333 42 282 -5 190 -5 c 0
 105 -5 48 32 48 106 c 2
 48 106 48 121 48 122 c 0
 48 167 74 188 92 199 c 1
 76 207 48 227 48 276 c 0
 48 306 48 285 48 294 c 0
 48 339 64 389 135 389 c 0
 223 389 225 259 138 259 c 0
 130 259 120 260 113 265 c 1
 113 233 128 213 155 213 c 2
 181 213 l 1
 181 184 l 1
 155 184 l 2
 132 184 115 168 115 132 c 2
 115 81 l 2
 115 43 152 25 191 25 c 0
 235 25 267 46 267 82 c 0
 267 85 269 325 269 342 c 1
 300 384 l 1
 309 392 335 401 333 362 c 1
 333 113 l 1
135 290 m 0
 181 290 181 358 135 358 c 0
 89 358 89 290 135 290 c 0
EndSplineSet
EndChar
StartChar: uni0E23
Encoding: 195 3619 163
Width: 292
Flags: HW
HStem: -2 20
VStem: 165 67
Fore
269 364 m 0
 269 364 l 0
 250 305 188 325 176 329 c 0
 101 354 72 351 54 311 c 1
 194 275 l 2
 217 269 232 256 232 228 c 2
 232 74 l 2
 232 65 239 -2 150 -2 c 0
 54 -2 61 131 147 130 c 0
 153 130 160 129 166 127 c 1
 166 228 l 2
 166 240 164 249 151 252 c 2
 10 290 l 1
 21 325 48 389 119 389 c 0
 166 389 232 352 249 377 c 0
 260 393 276 390 269 364 c 0
147 30 m 0
 193 30 193 98 147 98 c 0
 101 98 101 30 147 30 c 0
EndSplineSet
KernsSLIF: 212 20 1 0 215 20 1 0 214 20 1 0 213 20 1 0
EndChar
StartChar: uni0E24
Encoding: 196 3620 164
Width: 390
Flags: HW
HStem: -4 29 246 29<56 74 136 145 145 178>
VStem: 52 67<119 205 205 212> 263 67
Fore
331 262 m 0
 330 -110 l 1
 295 -152 l 1
 283 -160 262 -169 264 -132 c 0
 264 -118 264 263 264 263 c 2
 264 377 87 387 56 275 c 1
 178 275 l 1
 178 246 l 1
 163 246 145 246 145 246 c 2
 127 246 119 231 119 212 c 2
 119 212 119 149 119 119 c 1
 208 138 225 1 134 -4 c 0
 65 -8 52 50 52 79 c 2
 52 205 l 2
 52 219 61 243 74 246 c 1
 20 246 l 1
 26 425 321 444 331 262 c 0
131 24 m 0
 177 24 177 92 131 92 c 0
 85 92 85 24 131 24 c 0
EndSplineSet
EndChar
StartChar: uni0E25
Encoding: 197 3621 165
Width: 377
Flags: HW
HStem: -3 29 244 36
VStem: 47 67<122 173 173 180> 251 67
Fore
318 0 m 1
 252 0 l 1
 252 184 l 2
 252 214 220 245 181 245 c 0
 139 245 114 214 114 180 c 2
 114 122 l 1
 212 144 225 2 131 -3 c 0
 68 -5 47 48 47 78 c 2
 47 173 l 2
 47 228 95 280 167 280 c 0
 208 280 236 267 253 247 c 1
 253 256 253 267 253 275 c 0
 253 370 100 382 44 280 c 1
 20 293 l 1
 103 450 318 395 318 269 c 2
 318 0 l 1
129 27 m 0
 175 27 175 95 129 95 c 0
 83 95 83 27 129 27 c 0
EndSplineSet
EndChar
StartChar: uni0E26
Encoding: 198 3622 166
Width: 399
Flags: HW
HStem: 246 29<67 84 146 155 155 189>
VStem: 61 67<122 198 198 206> 272 67
Fore
340 265 m 0
 339 -110 l 1
 304 -152 l 1
 292 -160 271 -169 273 -132 c 0
 273 -118 273 269 273 269 c 2
 273 378 95 384 67 275 c 1
 189 275 l 1
 189 246 l 1
 155 246 l 2
 137 246 128 225 128 207 c 2
 128 54 l 2
 128 13 100 -5 65 -5 c 0
 -17 -5 -20 119 61 122 c 1
 61 198 l 2
 61 214 71 243 84 246 c 1
 31 246 l 1
 37 424 329 444 340 265 c 0
65 24 m 0
 111 24 111 92 65 92 c 0
 19 92 19 24 65 24 c 0
EndSplineSet
EndChar
StartChar: uni0E27
Encoding: 199 3623 167
Width: 327
Flags: HW
HStem: -3 29<163 206> 94 29
VStem: 202 67<121 274>
Fore
269 85 m 1
 269 85 l 0
 269 30 247 -3 180 -3 c 0
 146 -3 119 24 118 58 c 0
 117 93 140 123 180 124 c 0
 190 124 196 123 202 121 c 1
 202 287 l 2
 202 368 71 382 29 284 c 1
 3 298 l 1
 57 438 269 405 269 274 c 2
 269 85 l 1
183 26 m 0
 229 26 229 94 183 94 c 0
 137 94 137 26 183 26 c 0
EndSplineSet
EndChar
StartChar: uni0E28
Encoding: 200 3624 168
Width: 384
Flags: HW
HStem: 0 20 162 29<159 187> 260 29 354 36
VStem: 16 33 58 67<0 134> 259 67
Fore
220 261 m 0
 220 261 l 0
 229 266 247 284 254 294 c 1
 241 332 209 355 162 355 c 0
 92 355 48 314 48 261 c 0
 48 235 66 217 74 208 c 1
 76 208 l 1
 87 254 107 289 166 289 c 0
 192 289 208 278 220 261 c 0
260 251 m 1
 260 251 l 0
 249 244 236 235 227 232 c 1
 232 200 212 162 167 162 c 0
 151 162 138 167 130 173 c 1
 126 166 125 152 125 134 c 2
 125 0 l 1
 58 0 l 1
 58 152 l 2
 58 179 16 198 16 261 c 0
 16 342 80 390 161 390 c 0
 210 390 259 378 289 351 c 1
 295 361 304 391 303 408 c 1
 369 408 l 1
 363 365 335 324 318 305 c 1
 323 293 326 278 326 258 c 2
 326 0 l 1
 260 0 l 1
 260 251 l 1
164 191 m 0
 210 191 210 259 164 259 c 0
 118 259 118 191 164 191 c 0
EndSplineSet
EndChar
StartChar: uni0E29
Encoding: 201 3625 169
Width: 431
Flags: HW
HStem: 0 29<64 100 166 270 270 279> 240 20<183.5 219>
VStem: 100 67 306 67<78 158 158 158>
Fore
373 78 m 0
 373 78 l 0
 375 48 356 0 297 0 c 2
 64 0 l 1
 64 29 l 1
 100 29 l 1
 100 257 l 1
 93 256 86 255 81 255 c 0
 -10 255 -11 387 85 387 c 0
 172 387 166 320 166 312 c 2
 166 257 l 1
 177 261 180 260 187 260 c 0
 251 260 263 173 212 155 c 1
 262 140 310 193 307 235 c 1
 307 341 l 1
 341 382 l 1
 353 390 375 399 373 362 c 0
 373 361 373 97 373 78 c 0
306 70 m 0
 306 158 l 0
 262 105 196 113 166 141 c 1
 166 141 166 49 166 29 c 1
 270 29 l 2
 288 29 306 42 306 70 c 0
185 171 m 0
 185 171 l 0
 228 171 228 235 185 235 c 0
 142 235 142 171 185 171 c 0
79 287 m 0
 125 287 125 355 79 355 c 0
 33 355 33 287 79 287 c 0
EndSplineSet
EndChar
StartChar: uni0E2A
Encoding: 202 3626 170
Width: 376
Flags: HW
HStem: -3 29 220 29
VStem: 47 67<122 148 148 155> 251 67
Fore
369 408 m 1
 369 408 l 0
 366 380 339 344 306 319 c 1
 311 311 318 294 318 269 c 2
 318 0 l 1
 252 0 l 1
 252 147 l 2
 252 184 219 218 180 218 c 0
 138 218 114 189 114 155 c 2
 114 122 l 1
 212 144 225 2 131 -3 c 0
 68 -5 47 48 47 78 c 2
 47 148 l 2
 47 211 101 242 124 248 c 1
 155 262 208 292 240 318 c 1
 199 375 86 357 44 280 c 1
 20 293 l 1
 76 400 202 413 277 354 c 1
 291 371 300 390 303 408 c 1
 369 408 l 1
254 212 m 0
 254 212 l 1
 254 212 254 262 254 270 c 0
 254 275 254 280 252 284 c 1
 234 273 203 258 179 249 c 1
 204 249 241 238 254 212 c 0
129 27 m 0
 175 27 175 95 129 95 c 0
 83 95 83 27 129 27 c 0
EndSplineSet
EndChar
StartChar: uni0E2B
Encoding: 203 3627 171
Width: 424
Flags: HW
HStem: 0 289<299 340 299 299>
VStem: 94 67<0 63> 299 67<0 241 241 242>
Fore
366 0 m 1
 299 0 l 1
 299 241 l 2
 299 250 298 255 295 259 c 1
 224 212 173 114 168 102 c 0
 163 87 161 74 161 63 c 2
 161 0 l 1
 94 0 l 1
 94 259 l 1
 88 257 81 256 74 256 c 0
 -11 256 -18 387 80 387 c 0
 166 387 160 320 160 312 c 2
 160 161 l 1
 198 220 251 266 270 279 c 1
 229 319 259 387 317 387 c 0
 391 387 400 299 355 272 c 1
 361 265 366 257 366 242 c 2
 366 0 l 1
73 287 m 0
 73 287 l 0
 119 287 119 355 73 355 c 0
 27 355 27 287 73 287 c 0
317 289 m 0
 363 289 363 357 317 357 c 0
 271 357 271 289 317 289 c 0
EndSplineSet
EndChar
StartChar: uni0E2C
Encoding: 204 3628 172
Width: 464
Flags: HW
HStem: 0 105
VStem: 95 58 339 67
Fore
490 419 m 1
 490 419 l 0
 487 353 426 320 406 314 c 1
 406 0 l 1
 342 0 l 1
 244 263 l 1
 157 0 l 1
 95 0 l 1
 95 257 l 1
 88 256 81 255 76 255 c 0
 -13 255 -16 387 80 387 c 0
 167 387 161 320 161 312 c 0
 161 311 161 165 161 165 c 2
 161 147 155 104 155 104 c 1
 159 104 l 1
 159 104 167 141 173 162 c 1
 241 363 l 1
 247 363 l 1
 326 162 l 1
 332 141 341 104 341 104 c 1
 345 104 l 1
 345 104 340 147 340 165 c 1
 341 296 l 1
 261 302 265 416 344 416 c 0
 380 416 404 395 406 355 c 1
 418 363 434 389 431 419 c 1
 490 419 l 1
344 325 m 0
 344 325 l 0
 387 325 387 387 344 387 c 0
 301 387 301 325 344 325 c 0
74 287 m 0
 120 287 120 355 74 355 c 0
 28 355 28 287 74 287 c 0
EndSplineSet
EndChar
StartChar: uni0E2D
Encoding: 205 3629 173
Width: 369
Flags: HW
HStem: -5 20
VStem: 46 67<104 163> 244 67
Fore
311 103 m 1
 311 103 l 0
 311 14 214 -5 179 -5 c 0
 132 -5 46 12 46 104 c 2
 46 205 l 2
 46 234 66 292 130 290 c 0
 228 287 213 140 113 163 c 1
 113 81 l 1
 114 7 243 5 243 81 c 2
 243 81 243 267 243 275 c 0
 243 370 90 382 34 280 c 1
 10 293 l 1
 93 450 311 395 311 269 c 2
 311 103 l 1
130 192 m 0
 176 192 176 260 130 260 c 0
 84 260 84 192 130 192 c 0
EndSplineSet
EndChar
StartChar: uni0E2E
Encoding: 206 3630 174
Width: 369
Flags: HW
HStem: -5 20
VStem: 46 67<104 117> 244 67
Fore
324 392 m 1
 324 392 l 0
 317 367 306 347 293 331 c 1
 304 315 311 294 311 269 c 2
 311 103 l 2
 311 14 214 -5 179 -5 c 0
 132 -5 46 12 46 104 c 2
 46 157 l 2
 46 186 66 244 130 242 c 0
 227 239 210 96 113 117 c 1
 113 81 l 1
 114 7 243 5 243 81 c 2
 243 81 243 267 243 275 c 0
 243 280 243 285 242 290 c 1
 207 273 170 269 147 267 c 0
 73 261 29 273 27 302 c 0
 23 375 169 413 253 367 c 1
 257 375 259 384 261 392 c 1
 324 392 l 1
225 326 m 0
 225 326 l 0
 180 373 70 352 71 315 c 0
 71 304 92 293 147 296 c 0
 181 298 206 309 225 326 c 0
130 145 m 0
 176 145 176 213 130 213 c 0
 84 213 84 145 130 145 c 0
EndSplineSet
EndChar
StartChar: uni0E2F
Encoding: 207 3631 175
Width: 351
Flags: HW
HStem: -12 20 360 29<54 100>
VStem: 218 67<-12 281 281 281>
Fore
285 -12 m 1
 218 -12 l 1
 218 281 l 1
 157 240 67 254 41 272 c 0
 -14 311 13 389 78 389 c 0
 134 389 165 327 128 286 c 1
 210 286 228 342 228 387 c 1
 285 387 l 1
 285 -12 l 1
77 292 m 0
 123 292 123 360 77 360 c 0
 31 360 31 292 77 292 c 0
EndSplineSet
EndChar
StartChar: uni0E30
Encoding: 208 3632 176
Width: 300
Flags: HW
HStem: -4 42 99 29<61.5 104.5> 255 42 361 29<61.5 104.5>
Fore
266 387 m 1
 266 387 l 0
 255 289 191 258 124 258 c 0
 44 258 20 297 20 325 c 0
 20 354 34 390 84 390 c 0
 125 390 145 363 145 331 c 0
 145 320 143 302 128 293 c 1
 196 294 212 339 209 387 c 1
 266 387 l 1
83 297 m 0
 83 297 l 0
 126 297 126 361 83 361 c 0
 40 361 40 297 83 297 c 0
266 125 m 1
 266 125 l 0
 255 27 191 -4 124 -4 c 0
 44 -4 20 35 20 63 c 0
 20 92 34 128 84 128 c 0
 125 128 145 101 145 69 c 0
 145 58 143 40 128 31 c 1
 196 32 212 77 209 125 c 1
 266 125 l 1
83 35 m 0
 126 35 126 99 83 99 c 0
 40 99 40 35 83 35 c 0
EndSplineSet
EndChar
StartChar: uni0E31
Encoding: 209 3633 177
Width: 0
Flags: HW
HStem: 576 29
Fore
102 601 m 1
 102 601 l 0
 74 482 -14 439 -98 440 c 0
 -175 440 -245 479 -245 536 c 0
 -245 574 -216 605 -177 605 c 0
 -136 605 -108 576 -108 538 c 0
 -108 512 -122 490 -149 479 c 1
 -66 456 25 486 36 601 c 1
 102 601 l 1
-176 505 m 0
 -130 505 -130 573 -176 573 c 0
 -222 573 -222 505 -176 505 c 0
EndSplineSet
EndChar
StartChar: uni0E32
Encoding: 210 3634 178
Width: 278
Flags: HW
HStem: 0 20
VStem: 153 67<0 292>
Fore
220 0 m 1
 153 0 l 1
 153 297 l 2
 153 361 59 367 14 312 c 1
 -4 329 l 1
 55 409 220 414 220 292 c 2
 220 0 l 1
EndSplineSet
EndChar
StartChar: uni0E33
Encoding: 211 3635 179
Width: 278
Flags: HW
HStem: 0 20
VStem: 153 67<0 292>
Fore
-86 438 m 0
 -86 438 l 0
 -180 438 -180 578 -86 578 c 0
 7 578 7 438 -86 438 c 0
220 0 m 1
 153 0 l 1
 153 297 l 2
 153 361 59 367 14 312 c 1
 -4 329 l 1
 55 409 220 414 220 292 c 2
 220 0 l 1
-86 473 m 0
 -40 473 -40 541 -86 541 c 0
 -132 541 -132 473 -86 473 c 0
EndSplineSet
EndChar
StartChar: uni0E34
Encoding: 212 3636 180
Width: 0
Flags: HW
Fore
-47 414 m 0
 -47 414 l 0
 -167 466 -256 486 -360 464 c 1
 -316 636 -47 620 -47 414 c 0
-86 461 m 1
 -117 547 -243 582 -305 500 c 1
 -240 508 -153 495 -86 461 c 1
EndSplineSet
EndChar
StartChar: uni0E35
Encoding: 213 3637 181
Width: 0
Flags: HW
VStem: -128 67
Fore
-47 414 m 0
 -47 414 l 0
 -167 466 -256 486 -360 464 c 1
 -332 575 -209 608 -126 561 c 1
 -126 617 l 1
 -61 617 l 1
 -61 488 l 1
 -52 467 -47 442 -47 414 c 0
-86 461 m 1
 -117 547 -243 582 -305 500 c 1
 -240 508 -153 495 -86 461 c 1
EndSplineSet
EndChar
StartChar: uni0E36
Encoding: 214 3638 182
Width: 0
Flags: HW
Fore
-47 414 m 0
 -47 414 l 0
 -167 466 -256 486 -360 464 c 1
 -335 563 -236 599 -156 574 c 1
 -153 593 -135 620 -93 620 c 0
 -16 620 -10 525 -67 501 c 1
 -54 477 -47 448 -47 414 c 0
-86 461 m 0
 -86 461 l 0
 -117 547 -243 582 -305 500 c 1
 -240 508 -153 495 -86 461 c 0
-93 526 m 0
 -50 526 -50 590 -93 590 c 0
 -136 590 -136 526 -93 526 c 0
EndSplineSet
EndChar
StartChar: uni0E37
Encoding: 215 3639 183
Width: 0
Flags: HW
VStem: -113 51
Fore
-47 414 m 0
 -47 414 l 0
 -167 466 -256 486 -360 464 c 1
 -340 543 -271 583 -204 582 c 1
 -203 618 l 1
 -156 618 l 1
 -155 572 l 1
 -139 568 -126 560 -114 553 c 1
 -113 618 l 1
 -63 618 l 1
 -62 491 l 1
 -53 469 -47 443 -47 414 c 0
-86 461 m 1
 -117 547 -243 582 -305 500 c 1
 -240 508 -153 495 -86 461 c 1
EndSplineSet
EndChar
StartChar: uni0E38
Encoding: 216 3640 184
Width: 0
Flags: HW
HStem: -148 29 -63 29
VStem: -129 67
Fore
-62 -200 m 1
 -125 -200 l 1
 -125 -147 l 1
 -129 -148 -136 -148 -142 -148 c 0
 -216 -147 -217 -40 -142 -34 c 1
 -96 -32 -65 -54 -62 -97 c 1
 -62 -200 l 1
-110 -92 m 0
 -110 -76 -123 -63 -138 -63 c 0
 -158 -63 -168 -75 -168 -92 c 0
 -168 -107 -155 -121 -138 -121 c 0
 -120 -121 -110 -107 -110 -92 c 0
EndSplineSet
EndChar
StartChar: uni0E39
Encoding: 217 3641 185
Width: 0
Flags: HW
HStem: -208 29 -139 20 -53 20<-253 -193.5>
VStem: -187 33 -128 67
Fore
-61 -138 m 1
 -61 -138 l 0
 -61 -176 -84 -208 -129 -208 c 0
 -174 -208 -203 -183 -203 -147 c 2
 -203 -137 l 1
 -206 -138 -210 -139 -216 -139 c 0
 -290 -138 -290 -33 -216 -33 c 0
 -171 -33 -153 -60 -154 -98 c 1
 -154 -167 l 1
 -155 -175 -148 -182 -140 -182 c 0
 -131 -182 -125 -177 -125 -167 c 2
 -125 -37 l 1
 -61 -37 l 1
 -61 -138 l 1
-189 -86 m 0
 -189 -70 -202 -57 -217 -57 c 0
 -236 -57 -247 -69 -247 -86 c 0
 -247 -101 -234 -115 -217 -115 c 0
 -199 -115 -189 -101 -189 -86 c 0
EndSplineSet
EndChar
StartChar: uni0E3A
Encoding: 218 3642 186
Width: 0
Flags: HW
Fore
-92 -113 m 0
 -152 -113 -152 -28 -92 -28 c 0
 -34 -28 -34 -113 -92 -113 c 0
EndSplineSet
EndChar
StartChar: zerospace
Encoding: 220 8203 187
Width: 530
Flags: HW
HStem: 0 40<65 404>
VStem: 65 44<-122 -25> 443 44<-122 40>
Fore
487 -122 m 1
 443 -122 l 1
 443 -35 l 2
 443 -11 430 0 402 0 c 2
 143 0 l 2
 120 0 109 -10 109 -32 c 2
 109 -122 l 1
 65 -122 l 1
 65 40 l 1
 487 40 l 1
 487 -122 l 1
EndSplineSet
EndChar
StartChar: dottedcircle
Encoding: 221 9676 188
Width: 423
Flags: W
HStem: -9 50<224 226> 15 50<125 131> 22 50<310 314> 77 50<58 66> 85 49<365 367> 171 50<388 394> 176 50<34 41> 260 50<365 367> 264 50<63 65> 326 50<131 138> 348 50<223 227>
VStem: 9 50<200 202> 34 50<101 109> 39 49<290 296> 99 50<41 47> 106 50<350 352> 199 50<15 22 374 378> 277 50<345 353> 285 50<47 49> 340 49<109 111 286 292> 364 50<196 202>
Fore
56 301 m 6
124 361 m 6
117 52 m 6
51 112 m 6
302 58 m 6
357 120 m 6
357 297 m 6
294 356 m 6
381 207 m 6
27 211 m 6
216 385 m 6
63 314 m 4
 78 314 88 303 88 290 c 4
 88 276 78 264 63 264 c 4
 50 264 39 276 39 290 c 4
 39 303 50 314 63 314 c 4
63 290 m 4
 63 290 l 4
 63 290 l 4
 63 290 l 4
 63 290 l 4
131 376 m 4
 145 376 156 365 156 350 c 4
 156 337 145 326 131 326 c 4
 118 326 106 337 106 350 c 4
 106 365 118 376 131 376 c 4
131 350 m 4
 131 350 l 4
 131 350 l 4
 131 350 l 4
 131 350 l 4
125 65 m 4
 138 65 149 54 149 41 c 4
 149 27 138 15 125 15 c 4
 110 15 99 27 99 41 c 4
 99 54 110 65 125 65 c 4
125 41 m 4
 125 41 l 4
 125 41 l 4
 125 41 l 4
 125 41 l 4
58 127 m 4
 73 127 84 115 84 101 c 4
 84 88 73 77 58 77 c 4
 45 77 34 88 34 101 c 4
 34 115 45 127 58 127 c 4
58 101 m 4
 58 101 l 4
 58 101 l 4
 58 101 l 4
 58 101 l 4
310 72 m 4
 324 72 335 61 335 47 c 4
 335 34 324 22 310 22 c 4
 296 22 285 34 285 47 c 4
 285 61 296 72 310 72 c 4
310 47 m 4
 310 47 l 4
 310 47 l 4
 310 47 l 4
 310 47 l 4
365 134 m 4
 378 134 389 123 389 109 c 4
 389 95 378 85 365 85 c 4
 350 85 340 95 340 109 c 4
 340 123 350 134 365 134 c 4
365 109 m 4
 365 109 l 4
 365 109 l 4
 365 109 l 4
 365 109 l 4
365 310 m 4
 378 310 389 299 389 286 c 4
 389 272 378 260 365 260 c 4
 350 260 340 272 340 286 c 4
 340 299 350 310 365 310 c 4
365 286 m 4
 365 286 l 4
 365 286 l 4
 365 286 l 4
 365 286 l 4
301 371 m 4
 316 371 327 359 327 345 c 4
 327 332 316 321 301 321 c 4
 288 321 277 332 277 345 c 4
 277 359 288 371 301 371 c 4
301 345 m 4
 301 345 l 4
 301 345 l 4
 301 345 l 4
 301 345 l 4
388 221 m 4
 402 221 414 209 414 196 c 4
 414 182 402 171 388 171 c 4
 375 171 364 182 364 196 c 4
 364 209 375 221 388 221 c 4
388 196 m 4
 388 196 l 4
 388 196 l 4
 388 196 l 4
 388 196 l 4
34 226 m 4
 48 226 59 214 59 200 c 4
 59 187 48 176 34 176 c 4
 21 176 9 187 9 200 c 4
 9 214 21 226 34 226 c 4
34 200 m 4
 34 200 l 4
 34 200 l 4
 34 200 l 4
 34 200 l 4
224 41 m 4
 238 41 249 30 249 15 c 4
 249 2 238 -9 224 -9 c 4
 211 -9 199 2 199 15 c 4
 199 30 211 41 224 41 c 4
224 15 m 4
 224 15 l 4
 224 15 l 4
 224 15 l 4
 224 15 l 4
223 398 m 4
 237 398 248 387 248 374 c 4
 248 359 237 348 223 348 c 4
 209 348 198 359 198 374 c 4
 198 387 209 398 223 398 c 4
223 374 m 4
 223 374 l 4
 223 374 l 4
 223 374 l 4
 223 374 l 4
EndSplineSet
EndChar
StartChar: uni0E3F
Encoding: 223 3647 189
Width: 490
Flags: HW
HStem: -6 29 228 42 452 29
VStem: 94 67 215 67 350 75
Fore
448 130 m 0
 448 130 l 0
 448 38 388 -5 282 -6 c 1
 281 -77 l 1
 222 -77 l 1
 221 -7 l 1
 25 -6 l 1
 25 21 l 1
 84 21 94 38 94 57 c 2
 94 415 l 2
 94 433 84 451 25 452 c 1
 25 478 l 1
 51 478 187 479 221 479 c 1
 222 543 l 1
 281 543 l 1
 282 476 l 1
 372 476 425 441 425 352 c 0
 425 290 394 260 348 248 c 1
 400 239 448 203 448 130 c 0
220 268 m 1
 220 438 l 0
 183 440 163 440 163 423 c 2
 163 268 l 1
 220 268 l 1
352 349 m 0
 352 349 l 0
 352 408 324 435 282 434 c 1
 282 270 l 1
 338 272 352 311 352 349 c 0
220 33 m 0
 220 226 l 0
 208 226 174 226 163 226 c 1
 163 65 l 2
 163 44 163 26 220 33 c 0
367 132 m 0
 367 181 335 215 282 217 c 1
 282 36 l 1
 343 42 367 74 367 132 c 0
EndSplineSet
EndChar
StartChar: uni0E40
Encoding: 224 3648 190
Width: 220
Flags: HW
HStem: -5 20
VStem: 55 67
Fore
131 122 m 0
 131 122 l 0
 221 122 220 -5 130 -5 c 0
 81 -5 55 37 55 77 c 1
 56 341 l 1
 91 382 l 1
 100 391 125 399 123 362 c 0
 123 361 122 166 122 121 c 1
 124 121 129 122 131 122 c 0
135 25 m 0
 181 25 181 93 135 93 c 0
 89 93 89 25 135 25 c 0
EndSplineSet
EndChar
StartChar: uni0E41
Encoding: 225 3649 191
Width: 397
Flags: HW
HStem: -5 20
VStem: 55 67 231 67
Fore
307 122 m 0
 307 122 l 0
 397 122 396 -5 306 -5 c 0
 257 -5 231 37 231 77 c 1
 232 341 l 1
 267 382 l 1
 276 391 301 399 299 362 c 0
 299 361 298 166 298 121 c 1
 300 121 305 122 307 122 c 0
131 122 m 0
 131 122 l 0
 221 122 220 -5 130 -5 c 0
 81 -5 55 37 55 77 c 1
 56 341 l 1
 91 382 l 1
 100 391 125 399 123 362 c 0
 123 361 122 166 122 121 c 1
 124 121 129 122 131 122 c 0
310 24 m 0
 310 24 l 0
 356 24 356 92 310 92 c 0
 264 92 264 24 310 24 c 0
134 24 m 0
 180 24 180 92 134 92 c 0
 88 92 88 24 134 24 c 0
EndSplineSet
EndChar
StartChar: uni0E42
Encoding: 226 3650 192
Width: 221
Flags: HMW
HStem: -5 20 579 53
VStem: 79 67
Fore
225 589 m 0
 225 589 l 0
 208 539 173 543 146 552 c 0
 108 565 66 584 45 584 c 0
 30 584 20 584 1 556 c 1
 126 488 l 2
 144 478 147 467 147 449 c 1
 147 449 146 166 146 121 c 1
 149 122 153 122 155 122 c 0
 245 122 244 -5 154 -5 c 0
 105 -5 79 37 79 77 c 1
 81 450 l 1
 81 469 73 480 67 483 c 2
 -43 541 l 1
 -20 590 8 632 56 632 c 0
 92 632 180 573 203 602 c 0
 215 617 232 615 225 589 c 0
158 24 m 0
 204 24 204 92 158 92 c 0
 112 92 112 24 158 24 c 0
EndSplineSet
MinimumDistance: x14,-1 
EndChar
StartChar: uni0E43
Encoding: 227 3651 193
Width: 236
Flags: HW
HStem: -5 20 438 29 519 29 590 42
VStem: 92 67
Fore
168 122 m 0
 168 122 l 0
 258 122 257 -5 167 -5 c 0
 118 -5 92 37 92 77 c 1
 94 548 l 1
 94 576 70 594 48 594 c 0
 21 594 -7 582 -11 532 c 1
 1 546 22 548 26 548 c 0
 103 548 103 437 25 437 c 0
 -29 437 -45 498 -43 540 c 1
 -38 591 -4 632 57 632 c 0
 123 632 160 588 160 536 c 1
 159 121 l 1
 161 121 166 122 168 122 c 0
29 517 m 0
 29 517 l 0
 12 517 2 506 2 492 c 0
 2 481 10 467 27 467 c 0
 62 467 62 517 29 517 c 0
171 24 m 0
 217 24 217 92 171 92 c 0
 125 92 125 24 171 24 c 0
EndSplineSet
EndChar
StartChar: uni0E44
Encoding: 228 3652 194
Width: 253
Flags: HW
HStem: -5 20 429 29 603 29
VStem: -24 51 53 44 110 67
Fore
186 122 m 0
 186 122 l 0
 276 122 275 -5 185 -5 c 0
 136 -5 111 37 111 77 c 1
 116 587 l 1
 116 596 112 602 105 602 c 0
 96 602 92 594 92 587 c 2
 92 488 l 2
 92 457 76 431 36 431 c 0
 -2 430 -24 457 -24 491 c 2
 -24 592 l 2
 -24 597 -25 603 -31 609 c 0
 -39 617 -43 619 -52 627 c 1
 -67 644 -51 659 -32 648 c 1
 8 628 l 2
 23 620 25 612 25 599 c 2
 25 471 l 2
 25 465 32 458 39 458 c 0
 45 458 53 464 53 471 c 2
 53 565 l 2
 53 603 72 632 117 632 c 0
 162 632 179 599 179 567 c 1
 179 567 177 165 177 120 c 1
 179 120 182 122 186 122 c 0
189 24 m 0
 235 24 235 92 189 92 c 0
 143 92 143 24 189 24 c 0
EndSplineSet
EndChar
StartChar: uni0E45
Encoding: 229 3653 195
Width: 198
Flags: HW
VStem: 72 67<-117 292>
Fore
139 -117 m 1
 103 -159 l 1
 91 -167 70 -176 72 -139 c 0
 72 -125 72 297 72 297 c 2
 72 361 -22 367 -67 312 c 1
 -85 329 l 1
 -26 409 139 414 139 292 c 2
 139 -117 l 1
EndSplineSet
EndChar
StartChar: uni0E46
Encoding: 230 3654 196
Width: 458
Flags: HW
VStem: 326 67
Fore
393 -117 m 1
 359 -159 l 0
 347 -167 328 -172 328 -139 c 0
 328 -125 328 316 328 316 c 2
 328 329 317 339 306 342 c 1
 264 299 l 1
 215 349 l 1
 195 335 179 310 185 257 c 1
 196 274 216 278 228 278 c 0
 306 276 305 166 228 166 c 0
 169 166 154 225 153 278 c 0
 152 311 165 364 218 390 c 1
 264 342 l 1
 310 390 l 1
 373 383 393 339 393 296 c 2
 393 -117 l 1
228 190 m 0
 271 190 271 254 228 254 c 0
 185 254 185 190 228 190 c 0
EndSplineSet
EndChar
StartChar: uni0E47
Encoding: 231 3655 197
Width: 0
Flags: HW
HStem: 427 29 582 29
Fore
-46 667 m 1
 -46 667 l 0
 -47 587 -105 576 -148 578 c 0
 -172 579 -196 581 -223 583 c 0
 -264 586 -294 544 -266 488 c 1
 -253 532 -199 516 -175 491 c 1
 -175 491 -168 483 -169 493 c 0
 -173 567 -52 567 -52 490 c 0
 -52 447 -82 427 -112 427 c 0
 -182 427 -195 479 -225 479 c 0
 -250 479 -252 443 -237 427 c 1
 -277 428 l 1
 -365 507 -327 629 -224 617 c 0
 -202 614 -175 612 -154 611 c 0
 -143 610 -102 609 -109 667 c 1
 -46 667 l 1
-113 459 m 0
 -74 459 -74 518 -113 518 c 0
 -152 518 -152 459 -113 459 c 0
EndSplineSet
EndChar
StartChar: uni0E48
Encoding: 232 3656 198
Width: 0
Flags: HW
HStem: 665 132
VStem: -121 58
Fore
-59 799 m 1
 -68 665 l 1
 -118 665 l 1
 -127 799 l 1
 -59 799 l 1
EndSplineSet
EndChar
StartChar: uni0E49
Encoding: 233 3657 199
Width: 0
Flags: HW
HStem: 771 29
VStem: -117 27
Fore
99 800 m 1
 99 800 l 0
 78 623 -129 645 -159 647 c 1
 -159 670 l 1
 -133 673 -123 685 -117 697 c 1
 -117 699 l 1
 -117 699 -123 697 -132 698 c 0
 -192 707 -191 800 -121 800 c 0
 -65 800 -65 750 -65 749 c 0
 -65 701 -90 679 -90 679 c 1
 -90 677 l 1
 -90 677 32 674 41 800 c 1
 99 800 l 1
-122 722 m 0
 -86 722 -86 773 -122 773 c 0
 -156 773 -156 722 -122 722 c 0
EndSplineSet
EndChar
StartChar: uni0E4A
Encoding: 234 3658 200
Width: 0
Flags: HW
VStem: -227 33
Fore
43 798 m 1
 43 798 l 0
 49 715 -3 642 -94 642 c 1
 -94 665 l 1
 -48 689 -60 755 -88 765 c 1
 -124 740 l 1
 -165 767 l 1
 -185 763 -194 736 -192 721 c 1
 -190 719 l 1
 -190 719 -182 732 -160 732 c 0
 -134 732 -115 715 -115 688 c 0
 -115 660 -133 642 -160 642 c 0
 -202 642 -227 679 -227 726 c 0
 -227 755 -202 799 -162 802 c 1
 -124 770 l 1
 -86 802 l 1
 -16 782 -19 718 -40 687 c 1
 -38 686 l 1
 -11 703 8 743 -5 798 c 1
 43 798 l 1
-160 665 m 0
 -130 665 -130 709 -160 709 c 0
 -189 709 -189 665 -160 665 c 0
EndSplineSet
EndChar
StartChar: uni0E4B
Encoding: 235 3659 201
Width: 0
Flags: HW
HStem: 646 154
VStem: -118 51
Fore
-7 698 m 1
 -68 697 l 1
 -69 646 l 1
 -117 646 l 1
 -118 697 l 1
 -179 698 l 1
 -179 746 l 1
 -118 747 l 1
 -119 798 l 1
 -67 798 l 1
 -68 747 l 1
 -7 746 l 1
 -7 698 l 1
EndSplineSet
EndChar
StartChar: uni0E4C
Encoding: 236 3660 202
Width: 0
Flags: HW
Fore
24 762 m 1
 24 762 l 0
 7 699 -65 687 -81 683 c 1
 -81 681 l 1
 -65 680 -48 663 -48 636 c 0
 -48 606 -71 583 -104 583 c 0
 -140 583 -162 610 -162 640 c 0
 -162 666 -143 700 -84 711 c 0
 -54 717 -33 739 -27 776 c 1
 24 762 l 1
-104 610 m 0
 -70 610 -70 664 -104 664 c 0
 -141 664 -141 610 -104 610 c 0
EndSplineSet
EndChar
StartChar: uni0E4D
Encoding: 237 3661 203
Width: 0
Flags: HW
Fore
-86 438 m 0
 -86 438 l 0
 -180 438 -180 578 -86 578 c 0
 7 578 7 438 -86 438 c 0
-86 473 m 0
 -40 473 -40 541 -86 541 c 0
 -132 541 -132 473 -86 473 c 0
EndSplineSet
EndChar
StartChar: uni0E4E
Encoding: 238 3662 204
Width: 0
Flags: HW
VStem: -170 44
Fore
-6 592 m 1
 -57 587 -66 562 -50 536 c 1
 -77 495 l 1
 -109 516 -125 503 -125 489 c 0
 -125 475 -112 467 -92 467 c 1
 -112 431 l 1
 -146 431 -170 458 -170 488 c 0
 -170 542 -118 553 -99 539 c 1
 -97 541 l 1
 -109 569 -98 626 -12 626 c 1
 -6 592 l 1
EndSplineSet
EndChar
StartChar: uni0E4F
Encoding: 239 3663 205
Width: 480
Flags: HW
HStem: -9 53 99 53 234 53 342 53
VStem: 37 51 144 51 282 51 391 51
Fore
442 193 m 0
 442 193 l 0
 442 82 349 -9 240 -9 c 0
 128 -9 37 82 37 193 c 0
 37 305 128 395 240 395 c 0
 349 395 442 305 442 193 c 0
390 193 m 0
 390 193 l 0
 390 276 323 343 240 343 c 0
 155 343 89 276 89 193 c 0
 89 110 155 42 240 42 c 0
 323 42 390 110 390 193 c 0
333 193 m 0
 333 193 l 0
 333 141 290 99 240 99 c 0
 186 99 144 141 144 193 c 0
 144 247 186 287 240 287 c 0
 290 287 333 247 333 193 c 0
284 193 m 0
 284 217 264 237 240 237 c 0
 216 237 196 217 196 193 c 0
 196 169 216 149 240 149 c 0
 264 149 284 169 284 193 c 0
EndSplineSet
EndChar
StartChar: uni0E50
Encoding: 240 3664 206
Width: 420
Flags: HW
HStem: -6 36<177 243> 277 42
VStem: 25 67 326 67
Fore
393 154 m 0
 393 154 l 0
 393 60 309 -6 210 -6 c 0
 108 -6 25 58 25 155 c 0
 25 250 108 319 210 319 c 0
 309 319 393 250 393 154 c 0
324 155 m 0
 324 219 277 280 210 280 c 0
 140 280 94 222 94 154 c 0
 94 89 144 30 210 30 c 0
 276 30 324 94 324 155 c 0
EndSplineSet
EndChar
StartChar: uni0E51
Encoding: 241 3665 207
Width: 420
Flags: HW
HStem: 64 29 161 29 273 42
VStem: 26 67 326 67
Fore
393 151 m 0
 393 151 l 0
 393 65 339 -5 259 -24 c 1
 220 -9 l 1
 322 21 328 97 328 152 c 0
 328 236 273 278 208 278 c 0
 136 278 91 225 91 151 c 0
 91 30 207 1 225 72 c 1
 214 65 205 64 196 64 c 0
 158 64 135 94 135 126 c 0
 135 162 160 190 199 190 c 0
 248 190 273 151 273 107 c 0
 273 -47 26 -49 26 151 c 0
 26 255 112 315 208 315 c 0
 303 315 393 254 393 151 c 0
198 98 m 0
 238 98 238 158 198 158 c 0
 158 158 158 98 198 98 c 0
EndSplineSet
EndChar
StartChar: uni0E52
Encoding: 242 3666 208
Width: 420
Flags: HW
HStem: -1 29 56 29 144 29 444 20
VStem: 24 58
Fore
403 164 m 0
 403 164 l 0
 403 131 404 100 399 73 c 0
 392 32 383 -1 313 -1 c 2
 126 -1 l 2
 56 -1 24 37 24 87 c 2
 24 365 l 2
 24 422 17 434 17 434 c 1
 6 472 35 467 47 458 c 1
 71 430 l 1
 71 430 84 415 84 365 c 2
 84 76 l 2
 84 49 104 30 126 30 c 2
 314 30 l 2
 336 30 341 46 343 59 c 0
 351 122 357 268 316 277 c 0
 297 281 278 238 273 209 c 0
 269 184 238 182 234 210 c 0
 230 236 217 280 194 277 c 0
 170 274 161 228 167 166 c 1
 173 171 187 174 197 174 c 0
 276 174 275 56 197 56 c 0
 155 56 132 86 124 125 c 0
 102 240 135 321 192 319 c 0
 228 318 245 285 252 261 c 0
 253 258 253 254 253 254 c 1
 255 254 l 1
 255 254 255 258 256 261 c 0
 265 285 285 319 321 319 c 0
 381 319 403 250 403 164 c 0
196 84 m 0
 236 84 236 144 196 144 c 0
 156 144 156 84 196 84 c 0
EndSplineSet
EndChar
StartChar: uni0E53
Encoding: 243 3667 209
Width: 420
Flags: HW
HStem: -5 20 276 42<124 152.5>
VStem: 191 44<154 182.5>
Fore
372 5 m 0
 339 -3 l 0
 326 -4 307 -8 313 21 c 0
 353 185 330 283 279 276 c 0
 248 272 235 206 235 159 c 0
 235 149 234 142 234 126 c 0
 233 90 189 91 190 126 c 0
 190 141 191 149 191 158 c 0
 191 220 167 276 138 276 c 0
 110 276 73 232 94 109 c 1
 100 113 112 119 126 119 c 0
 163 119 188 90 188 57 c 0
 188 23 163 -5 126 -5 c 0
 86 -5 56 23 43 60 c 0
 9 153 14 318 137 318 c 0
 179 318 202 281 211 262 c 1
 228 304 255 318 287 318 c 0
 397 318 418 171 372 5 c 0
126 27 m 0
 166 27 166 87 126 87 c 0
 86 87 86 27 126 27 c 0
EndSplineSet
EndChar
StartChar: uni0E54
Encoding: 244 3668 210
Width: 420
Flags: HW
HStem: -2 29 204 29 275 42 444 20<340 340>
VStem: 30 67 338 67
Fore
405 429 m 0
 405 429 l 0
 400 339 343 274 243 274 c 0
 231 274 210 276 198 276 c 0
 125 276 96 216 95 164 c 0
 95 97 136 24 216 30 c 0
 226 31 242 32 251 32 c 1
 208 58 162 108 162 159 c 0
 162 211 203 239 244 236 c 0
 281 233 302 207 302 169 c 0
 302 127 259 100 224 112 c 1
 242 83 305 37 364 42 c 0
 368 42 380 44 384 44 c 0
 409 44 395 20 395 20 c 1
 382 -1 l 1
 382 -1 320 0 262 2 c 0
 225 3 215 0 188 -2 c 0
 110 -6 30 52 30 164 c 0
 30 269 107 319 190 319 c 0
 215 319 221 317 239 317 c 0
 298 317 340 359 340 464 c 1
 392 448 l 2
 400 446 407 442 405 429 c 0
239 144 m 0
 279 144 279 204 239 204 c 0
 199 204 199 144 239 144 c 0
EndSplineSet
EndChar
StartChar: uni0E55
Encoding: 245 3669 211
Width: 420
Flags: HW
HStem: -2 29 204 29 277 29 367 29
VStem: 30 67 338 67
Fore
405 430 m 0
 405 430 l 0
 400 338 338 275 248 274 c 0
 235 274 210 276 198 276 c 0
 125 276 96 217 95 165 c 0
 95 98 145 23 225 29 c 0
 235 30 241 32 251 32 c 1
 199 59 162 109 162 160 c 0
 162 212 203 240 244 237 c 0
 281 234 302 208 302 170 c 0
 302 128 259 100 224 113 c 1
 242 84 305 38 364 43 c 0
 368 43 380 45 384 45 c 0
 409 45 395 21 395 21 c 1
 382 -1 l 1
 382 -1 321 0 263 2 c 0
 236 3 215 0 188 -2 c 0
 110 -6 30 53 30 165 c 0
 30 265 98 310 163 318 c 1
 161 324 161 329 161 333 c 0
 161 371 188 396 225 396 c 0
 263 396 288 370 288 333 c 0
 288 330 l 1
 313 345 342 384 339 465 c 1
 392 449 l 2
 400 447 407 443 405 430 c 0
224 306 m 0
 224 306 l 0
 264 306 264 366 224 366 c 0
 185 366 185 306 224 306 c 0
239 144 m 0
 279 144 279 204 239 204 c 0
 199 204 199 144 239 144 c 0
EndSplineSet
EndChar
StartChar: uni0E56
Encoding: 246 3670 212
Width: 420
Flags: HW
HStem: -6 36 67 29 279 42<187 232> 442 20<40 94 94 94>
VStem: 74 51 319 67
Fore
386 155 m 0
 386 155 l 0
 386 63 325 -6 202 -6 c 0
 3 -6 12 194 125 194 c 0
 163 194 188 165 188 129 c 0
 188 97 166 67 126 67 c 0
 122 67 118 68 115 68 c 1
 131 49 156 29 202 29 c 0
 271 29 321 86 321 155 c 0
 321 229 265 279 199 279 c 0
 172 279 139 276 112 260 c 0
 102 254 71 258 74 292 c 1
 74 362 56 400 30 441 c 0
 25 448 24 462 40 462 c 2
 94 462 l 1
 106 442 128 380 126 311 c 1
 146 318 175 321 199 321 c 0
 305 321 386 258 386 155 c 0
125 100 m 0
 165 100 165 160 125 160 c 0
 85 160 85 100 125 100 c 0
EndSplineSet
EndChar
StartChar: uni0E57
Encoding: 247 3671 213
Width: 420
Flags: HW
HStem: -4 29 87 29 276 42<244 244>
VStem: 158 33
Fore
389 444 m 0
 389 444 l 0
 444 284 406 27 301 -3 c 1
 301 -3 249 -12 256 20 c 1
 256 20 267 69 272 100 c 0
 295 230 268 276 244 276 c 0
 219 276 202 239 199 216 c 0
 197 206 196 193 195 178 c 0
 193 155 161 154 158 178 c 1
 158 193 156 207 155 217 c 0
 151 242 133 276 112 276 c 0
 92 276 55 242 79 107 c 1
 87 117 99 120 114 120 c 0
 150 120 175 92 175 59 c 0
 175 25 151 -4 114 -4 c 0
 67 -4 43 29 32 67 c 0
 -4 193 18 314 113 318 c 0
 138 319 166 296 177 264 c 1
 189 296 219 319 244 318 c 0
 332 314 357 179 302 38 c 1
 311 40 320 55 324 63 c 0
 371 156 380 302 328 422 c 1
 354 456 l 2
 365 470 377 480 389 444 c 0
113 27 m 0
 153 27 153 87 113 87 c 0
 73 87 73 27 113 27 c 0
EndSplineSet
EndChar
StartChar: uni0E58
Encoding: 248 3672 214
Width: 420
Flags: HW
HStem: -7 20 275 42 441 20<330 330>
VStem: 20 67 330 67
Fore
397 424 m 0
 397 424 l 0
 391 337 328 271 248 271 c 0
 229 271 213 272 197 272 c 0
 120 272 86 219 86 160 c 0
 86 114 97 76 124 54 c 1
 129 78 146 137 185 153 c 1
 220 148 l 1
 220 20 328 13 336 102 c 1
 286 93 259 131 259 163 c 0
 259 204 288 228 325 228 c 0
 377 228 393 193 395 160 c 0
 404 43 347 -6 296 -6 c 0
 261 -6 198 -1 181 86 c 1
 170 66 163 23 160 -7 c 1
 109 -8 20 43 20 161 c 0
 21 266 97 317 179 317 c 0
 198 317 222 314 237 314 c 0
 290 314 333 361 330 461 c 1
 384 445 l 2
 392 443 399 437 397 424 c 0
325 134 m 0
 365 134 365 194 325 194 c 0
 285 194 285 134 325 134 c 0
EndSplineSet
EndChar
StartChar: uni0E59
Encoding: 249 3673 215
Width: 420
Flags: HW
HStem: -4 20 86 29 221 53 274 42 441 20<349 349>
Fore
421 427 m 0
 421 427 l 0
 429 291 394 222 332 222 c 0
 287 222 279 271 254 272 c 0
 242 273 241 254 243 243 c 1
 246 236 257 220 260 215 c 0
 311 130 373 0 373 0 c 1
 323 0 l 2
 307 0 300 9 295 19 c 2
 295 19 246 117 210 179 c 0
 169 250 134 289 98 265 c 0
 64 243 78 150 115 100 c 1
 122 107 135 118 157 118 c 0
 193 118 218 91 218 56 c 0
 218 23 191 -4 156 -4 c 0
 128 -4 101 8 78 37 c 0
 13 115 -4 247 68 298 c 0
 86 310 145 332 203 282 c 1
 209 300 230 314 251 314 c 0
 300 315 300 274 329 274 c 0
 359 274 368 335 349 461 c 1
 410 443 l 2
 418 441 421 437 421 427 c 0
156 26 m 0
 196 26 196 86 156 86 c 0
 116 86 116 26 156 26 c 0
EndSplineSet
EndChar
StartChar: uni0E5A
Encoding: 250 3674 216
Width: 476
Flags: HW
HStem: -12 20 353 36<60 95.5>
VStem: 218 67<-12 281 281 281> 343 67<-12 387>
Fore
285 -12 m 1
 218 -12 l 1
 218 281 l 1
 157 240 67 254 41 272 c 0
 -14 311 13 389 76 389 c 0
 128 389 157 345 137 303 c 1
 211 304 228 368 228 387 c 1
 285 387 l 1
 285 -12 l 1
410 -12 m 1
 343 -12 l 1
 343 387 l 1
 410 387 l 1
 410 -12 l 1
78 299 m 0
 113 299 113 353 78 353 c 0
 42 353 42 299 78 299 c 0
EndSplineSet
EndChar
StartChar: uni0E5B
Encoding: 251 3675 217
Width: 842
Flags: HW
HStem: 24 42 129 42 250 29 368 42
VStem: 4 51 102 33 189 33
Fore
850 161 m 1
 850 161 l 1
 850 161 822 183 804 160 c 0
 781 131 750 118 726 158 c 0
 724 161 696 214 688 228 c 1
 651 73 l 1
 604 239 l 1
 555 41 l 1
 508 242 l 1
 473 45 l 1
 452 45 l 1
 399 287 l 1
 392 262 381 201 376 184 c 0
 337 56 263 24 189 24 c 0
 91 24 4 104 4 220 c 0
 4 343 77 410 167 410 c 0
 374 410 345 129 196 129 c 0
 141 129 102 165 102 220 c 0
 102 252 126 279 161 279 c 0
 195 279 218 254 218 220 c 0
 218 184 195 168 191 169 c 1
 191 167 l 1
 285 165 317 366 166 366 c 0
 104 366 50 311 50 219 c 0
 50 130 115 70 190 68 c 0
 239 68 302 97 332 197 c 0
 344 237 354 263 391 398 c 1
 412 398 l 1
 459 176 l 1
 493 361 l 1
 514 361 l 1
 556 178 l 1
 603 357 l 1
 649 192 l 1
 682 320 l 1
 726 226 745 192 745 192 c 2
 755 172 768 162 786 188 c 0
 809 221 850 199 850 199 c 1
 850 161 l 1
189 219 m 0
 189 235 178 253 161 253 c 0
 142 253 133 235 133 219 c 0
 133 199 145 184 161 184 c 0
 178 184 189 199 189 219 c 0
EndSplineSet
EndChar
StartChar: uni0E38.low
Encoding: 252 63256 218
Width: 0
Flags: HW
HStem: -255 29 -181 29
VStem: -107 58
Fore
-49 -298 m 1
 -106 -298 l 1
 -106 -255 l 1
 -110 -255 -115 -255 -121 -255 c 0
 -189 -255 -189 -158 -122 -152 c 1
 -80 -150 -52 -170 -49 -209 c 1
 -49 -298 l 1
-96 -204 m 0
 -96 -191 -109 -179 -120 -179 c 0
 -136 -179 -146 -189 -146 -204 c 0
 -146 -219 -135 -229 -120 -229 c 0
 -105 -229 -96 -219 -96 -204 c 0
EndSplineSet
EndChar
StartChar: uni0E39.low
Encoding: 253 63257 219
Width: 0
Flags: HW
HStem: -310 36 -252 20 -176 20<-221.5 -168 -106 -48 -48 -48>
VStem: -166 33 -106 58<-262 -247 -247 -156>
Fore
-48 -247 m 1
 -48 -247 l 0
 -48 -281 -69 -310 -110 -310 c 0
 -151 -310 -176 -288 -176 -254 c 2
 -176 -250 l 1
 -179 -251 -183 -252 -188 -252 c 0
 -255 -251 -255 -156 -188 -156 c 0
 -148 -156 -132 -180 -133 -215 c 1
 -133 -262 l 2
 -133 -270 -127 -275 -119 -275 c 0
 -112 -275 -106 -271 -106 -262 c 2
 -106 -156 l 1
 -48 -156 l 1
 -48 -247 l 1
-164 -204 m 0
 -164 -191 -176 -179 -189 -179 c 0
 -206 -179 -214 -189 -214 -204 c 0
 -214 -219 -205 -229 -189 -229 c 0
 -173 -229 -164 -219 -164 -204 c 0
EndSplineSet
EndChar
StartChar: uni0E3A.low
Encoding: 254 63258 220
Width: 0
Flags: HW
Fore
-80 -218 m 0
 -134 -218 -134 -141 -80 -141 c 0
 -30 -141 -31 -218 -80 -218 c 0
EndSplineSet
EndChar
StartChar: multiply
Encoding: 256 215 222
Width: 403
Flags: HW
Fore
354 76 m 1
 313 32 l 1
 201 143 l 1
 90 33 l 1
 47 77 l 1
 158 186 l 1
 49 298 l 1
 90 339 l 1
 201 229 l 1
 311 339 l 1
 353 298 l 1
 244 186 l 1
 354 76 l 1
EndSplineSet
EndChar
StartChar: divide
Encoding: 257 247 223
Width: 356
Flags: HW
HStem: 1 83 138 53<13 343> 246 83
VStem: 136 82
Fore
220 286 m 0
 220 286 l 0
 220 261 201 244 178 244 c 0
 155 244 136 265 136 286 c 0
 136 309 153 329 178 329 c 0
 201 329 220 312 220 286 c 0
343 138 m 1
 13 138 l 1
 13 191 l 1
 343 191 l 1
 343 138 l 1
220 43 m 0
 220 17 201 1 178 1 c 0
 155 1 136 20 136 43 c 0
 136 64 153 85 178 85 c 0
 201 85 220 66 220 43 c 0
EndSplineSet
EndChar
StartChar: registered
Encoding: 258 174 224
Width: 504
Flags: HW
HStem: 96 20 199 29 321 20<147 258 258 286.5>
VStem: 173 58 285 58
Fore
370 96 m 1
 322 96 l 0
 302 96 289 124 277 151 c 0
 256 193 262 201 228 201 c 1
 228 133 l 2
 228 125 231 123 237 122 c 2
 254 120 l 1
 254 96 l 1
 146 96 l 1
 146 121 l 1
 160 122 l 2
 169 123 173 126 173 133 c 2
 173 305 l 2
 173 315 172 316 161 316 c 2
 147 316 l 1
 147 341 l 1
 258 341 l 2
 315 341 343 322 343 279 c 0
 343 246 321 215 293 212 c 1
 314 207 321 184 330 165 c 0
 341 144 343 122 370 121 c 1
 370 96 l 1
288 274 m 0
 288 274 l 0
 288 303 272 318 245 316 c 2
 233 315 l 2
 228 315 228 304 228 298 c 2
 228 229 l 1
 234 228 l 2
 264 228 288 237 288 274 c 0
68 214 m 0
 68 112 151 29 253 29 c 0
 355 29 438 112 438 214 c 0
 438 316 355 399 253 399 c 0
 151 399 68 316 68 214 c 0
 68 214 l 0
22 214 m 0
 22 341 125 444 252 444 c 0
 379 444 482 341 482 214 c 0
 482 87 379 -16 252 -16 c 0
 125 -16 22 87 22 214 c 0
EndSplineSet
EndChar
